0
SECTION
2
HEADER
9
$INSUNITS
70
4
9
$ACADVER
1
AC1014
9
$HANDSEED
5
FFFF
0
ENDSEC
0
SECTION
2
TABLES
0
TABLE
2
VPORT
5
8
100
AcDbSymbolTable
0
ENDTAB
0
TABLE
2
LTYPE
5
5
100
AcDbSymbolTable
0
LTYPE
5
14
100
AcDbSymbolTableRecord
100
AcDbLinetypeTableRecord
2
BYBLOCK
70
0
0
LTYPE
5
15
100
AcDbSymbolTableRecord
100
AcDbLinetypeTableRecord
2
BYLAYER
70
0
0
LTYPE
5
16
100
AcDbSymbolTableRecord
100
AcDbLinetypeTableRecord
2
DASHED
70
0
3
Dashed __ __ __ __ __ __ __ __ __ __ __ __ __ _
72
65
73
2
40
0.75
49
0.5
74
0
49
-0.25
74
0
0
ENDTAB
0
TABLE
2
LAYER
5
2
100
AcDbSymbolTable
70
2
0
LAYER
5
50
100
AcDbSymbolTableRecord
100
AcDbLayerTableRecord
2
0
70
0
62
7
6
CONTINUOUS
0
ENDTAB
0
TABLE
2
STYLE
5
3
100
AcDbSymbolTable
70
1
0
STYLE
5
11
100
AcDbSymbolTableRecord
100
AcDbTextStyleTableRecord
2
STANDARD
70
0
0
ENDTAB
0
TABLE
2
VIEW
5
6
100
AcDbSymbolTable
70
0
0
ENDTAB
0
TABLE
2
UCS
5
7
100
AcDbSymbolTable
70
0
0
ENDTAB
0
TABLE
2
APPID
5
9
100
AcDbSymbolTable
70
2
0
APPID
5
12
100
AcDbSymbolTableRecord
100
AcDbRegAppTableRecord
2
ACAD
70
0
0
ENDTAB
0
TABLE
2
DIMSTYLE
5
A
100
AcDbSymbolTable
70
1
0
ENDTAB
0
TABLE
2
BLOCK_RECORD
5
1
100
AcDbSymbolTable
70
1
0
BLOCK_RECORD
5
1F
100
AcDbSymbolTableRecord
100
AcDbBlockTableRecord
2
*MODEL_SPACE
0
BLOCK_RECORD
5
1B
100
AcDbSymbolTableRecord
100
AcDbBlockTableRecord
2
*PAPER_SPACE
0
ENDTAB
0
ENDSEC
0
SECTION
2
BLOCKS
0
BLOCK
5
20
100
AcDbEntity
100
AcDbBlockBegin
2
*MODEL_SPACE
0
ENDBLK
5
21
100
AcDbEntity
100
AcDbBlockEnd
0
BLOCK
5
1C
100
AcDbEntity
100
AcDbBlockBegin
2
*PAPER_SPACE
0
ENDBLK
5
1D
100
AcDbEntity
100
AcDbBlockEnd
0
ENDSEC
0
SECTION
2
ENTITIES
0
LINE
5
100
100
AcDbEntity
8
0
100
AcDbLine
10
-587.48025466854415
20
831.28723428156036
30
0
11
-563.98032472891441
21
831.28723428156036
31
7.8886090522101181e-30
0
LINE
5
101
100
AcDbEntity
8
0
100
AcDbLine
10
-563.98032472891441
20
831.28723428156036
30
7.8886090522101181e-30
11
-563.98032472891384
21
847.28722245291146
31
0
0
LINE
5
102
100
AcDbEntity
8
0
100
AcDbLine
10
-563.98032472891384
20
847.28722245291146
30
0
11
-554.98032472891384
21
847.28722245291146
31
-7.1054273576010019e-14
0
LINE
5
103
100
AcDbEntity
8
0
100
AcDbLine
10
-554.98032472891384
20
847.28722245291146
30
-7.1054273576010019e-14
11
-554.9803247289143
21
822.28722245291146
31
-7.1054273576010019e-14
0
LINE
5
104
100
AcDbEntity
8
0
100
AcDbLine
10
-554.9803247289143
20
822.28723428156047
30
0
11
-442.48032472891475
21
822.28723428156081
31
0
0
LINE
5
105
100
AcDbEntity
8
0
100
AcDbLine
10
-442.48032472891475
20
822.28723428156081
30
0
11
-442.48032472891504
21
911.28722245291192
31
7.1054273576010019e-14
0
LINE
5
106
100
AcDbEntity
8
0
100
AcDbLine
10
-442.48032472891504
20
911.28722245291192
30
7.1054273576010019e-14
11
-462.48032472891504
21
911.28722245291192
31
0
0
LINE
5
107
100
AcDbEntity
8
0
100
AcDbLine
10
-462.48032472891504
20
911.28722245291192
30
0
11
-462.48032472891504
21
920.28722245291192
31
-5.5511151231257827e-16
0
LINE
5
108
100
AcDbEntity
8
0
100
AcDbLine
10
-462.48032472891504
20
920.28722245291192
30
-5.5511151231257827e-16
11
-442.48032472891504
21
920.28722245291192
31
-7.1054273576010019e-14
0
LINE
5
109
100
AcDbEntity
8
0
100
AcDbLine
10
-442.48032472891504
20
920.28722245291192
30
-7.1054273576010019e-14
11
-442.48032472891521
21
950.28722245291192
31
-7.1054273576010019e-14
0
LINE
5
110
100
AcDbEntity
8
0
100
AcDbLine
10
-442.48032472891521
20
950.28722245291192
30
-7.1054273576010019e-14
11
-462.48032472891521
21
950.28722245291192
31
0
0
LINE
5
111
100
AcDbEntity
8
0
100
AcDbLine
10
-462.48032472891521
20
950.28722245291192
30
0
11
-462.48032472891521
21
959.28722245291192
31
-5.5511151231257827e-16
0
LINE
5
112
100
AcDbEntity
8
0
100
AcDbLine
10
-462.48032472891521
20
959.28722245291192
30
-5.5511151231257827e-16
11
-442.48032472891521
21
959.28722245291192
31
2.1316282072803006e-13
0
LINE
5
113
100
AcDbEntity
8
0
100
AcDbLine
10
-442.48032472891521
20
959.28722245291192
30
2.1316282072803006e-13
11
-442.48032472891543
21
1029.2872224529119
31
2.1316282072803006e-13
0
LINE
5
114
100
AcDbEntity
8
0
100
AcDbLine
10
-442.48032472891543
20
1029.2872224529119
30
2.1316282072803006e-13
11
-462.48032472891543
21
1029.2872224529119
31
7.1054273576010006e-14
0
LINE
5
115
100
AcDbEntity
8
0
100
AcDbLine
10
-462.48032472891543
20
1029.2872224529119
30
7.1054273576010006e-14
11
-462.48032472891543
21
1038.2872224529119
31
7.1054273576010019e-14
0
LINE
5
116
100
AcDbEntity
8
0
100
AcDbLine
10
-462.48032472891543
20
1038.287210624263
30
1.4210854715202004e-13
11
-479.98032472891543
21
1038.287210624263
31
1.4210854715202004e-13
0
LINE
5
117
100
AcDbEntity
8
0
100
AcDbLine
10
-479.98032472891543
20
1038.287210624263
30
1.4210854715202004e-13
11
-479.98032472891538
21
1029.2872224529117
31
7.1054273576010019e-14
0
LINE
5
118
100
AcDbEntity
8
0
100
AcDbLine
10
-479.98032472891538
20
1029.2872224529117
30
7.1054273576010019e-14
11
-499.98032472891538
21
1029.2872224529119
31
1.4210854715202004e-13
0
LINE
5
119
100
AcDbEntity
8
0
100
AcDbLine
10
-499.98032472891538
20
1029.2872224529119
30
1.4210854715202004e-13
11
-499.98032472891543
21
1038.2872106242626
31
0
0
LINE
5
120
100
AcDbEntity
8
0
100
AcDbLine
10
-499.98032472891543
20
1038.2872106242626
30
0
11
-517.48032472891543
21
1038.2872106242626
31
0
0
LINE
5
121
100
AcDbEntity
8
0
100
AcDbLine
10
-517.48032472891543
20
1038.2872106242626
30
0
11
-517.48032472891532
21
1029.2872224529117
31
0
0
LINE
5
122
100
AcDbEntity
8
0
100
AcDbLine
10
-517.48032472891532
20
1029.2872224529117
30
0
11
-537.48032472891532
21
1029.2872224529115
31
1.4210854715202004e-13
0
LINE
5
123
100
AcDbEntity
8
0
100
AcDbLine
10
-537.48032472891532
20
1029.2872224529115
30
1.4210854715202004e-13
11
-537.48032472891543
21
1038.2872106242626
31
7.1054273576010019e-14
0
LINE
5
124
100
AcDbEntity
8
0
100
AcDbLine
10
-537.48032472891543
20
1038.2872106242626
30
7.1054273576010019e-14
11
-554.98032472891543
21
1038.2872106242626
31
7.1054273576010019e-14
0
LINE
5
125
100
AcDbEntity
8
0
100
AcDbLine
10
-554.98032472891543
20
1038.2872106242626
30
7.1054273576010019e-14
11
-554.98032472891543
21
1029.2872224529115
31
1.4210854715202004e-13
0
LINE
5
126
100
AcDbEntity
8
0
100
AcDbLine
10
-554.98032472891543
20
1029.2872224529115
30
1.4210854715202004e-13
11
-574.98032472891543
21
1029.2872224529115
31
7.1054273576010019e-14
0
LINE
5
127
100
AcDbEntity
8
0
100
AcDbLine
10
-574.98032472891543
20
1029.2872224529115
30
7.1054273576010019e-14
11
-574.98032472891543
21
1038.2872106242623
31
1.4210854715202004e-13
0
LINE
5
128
100
AcDbEntity
8
0
100
AcDbLine
10
-574.98032472891543
20
1038.2872106242623
30
1.4210854715202004e-13
11
-592.48032472891543
21
1038.2872106242626
31
1.4210854715202004e-13
0
LINE
5
129
100
AcDbEntity
8
0
100
AcDbLine
10
-592.48032472891543
20
1038.2872106242626
30
1.4210854715202004e-13
11
-592.48032472891543
21
1029.2872224529115
31
1.4210854715202004e-13
0
LINE
5
130
100
AcDbEntity
8
0
100
AcDbLine
10
-592.48032472891543
20
1029.2872224529115
30
1.4210854715202004e-13
11
-612.48025466854483
21
1029.2872224529112
31
1.4210854715202004e-13
0
LINE
5
131
100
AcDbEntity
8
0
100
AcDbLine
10
-612.48025466854483
20
1029.2872224529112
30
1.4210854715202004e-13
11
-612.48025466854449
21
959.28722245291146
31
0
0
LINE
5
132
100
AcDbEntity
8
0
100
AcDbLine
10
-612.48025466854449
20
959.28722245291146
30
0
11
-592.48032472891521
21
959.28722245291158
31
2.1316282072803006e-13
0
LINE
5
133
100
AcDbEntity
8
0
100
AcDbLine
10
-592.48032472891521
20
959.28722245291158
30
2.1316282072803006e-13
11
-592.48032472891521
21
950.28722245291135
31
2.1427304375265521e-13
0
LINE
5
134
100
AcDbEntity
8
0
100
AcDbLine
10
-592.48032472891521
20
950.28722245291135
30
2.1427304375265521e-13
11
-612.4802546685446
21
950.28722245291124
31
2.1316282072803006e-13
0
LINE
5
135
100
AcDbEntity
8
0
100
AcDbLine
10
-612.4802546685446
20
950.28722245291124
30
2.1316282072803006e-13
11
-612.48025466854438
21
920.28722245291135
31
2.1538326677728037e-13
0
LINE
5
136
100
AcDbEntity
8
0
100
AcDbLine
10
-612.48025466854438
20
920.28722245291135
30
2.1538326677728037e-13
11
-592.48032472891498
21
920.28722245291124
31
7.1054273576010006e-14
0
LINE
5
137
100
AcDbEntity
8
0
100
AcDbLine
10
-592.48032472891498
20
920.28722245291124
30
7.1054273576010006e-14
11
-592.48032472891498
21
911.28722245291124
31
5.5511151231257827e-16
0
LINE
5
138
100
AcDbEntity
8
0
100
AcDbLine
10
-592.48032472891498
20
911.28722245291124
30
5.5511151231257827e-16
11
-603.48025466854438
21
911.28722245291124
31
3.944304526105059e-30
0
LINE
5
139
100
AcDbEntity
8
0
100
AcDbLine
10
-603.48025466854438
20
911.28722245291124
30
3.944304526105059e-30
11
-603.48025466854438
21
896.28722245291124
31
0
0
LINE
5
140
100
AcDbEntity
8
0
100
AcDbLine
10
-603.48025466854438
20
896.28722245291124
30
0
11
-612.48025466854438
21
896.28722245291124
31
3.944304526105059e-30
0
LINE
5
141
100
AcDbEntity
8
0
100
AcDbLine
10
-612.48025466854438
20
896.28722245291124
30
3.944304526105059e-30
11
-612.48025466854426
21
881.78722245291146
31
0
0
LINE
5
142
100
AcDbEntity
8
0
100
AcDbLine
10
-612.48025466854426
20
881.78722245291146
30
0
11
-603.48025466854438
21
881.78722245291124
31
7.1054273576010019e-14
0
LINE
5
143
100
AcDbEntity
8
0
100
AcDbLine
10
-603.48025466854438
20
881.78722245291124
30
7.1054273576010019e-14
11
-603.48025466854415
21
866.78722245291146
31
0
0
LINE
5
144
100
AcDbEntity
8
0
100
AcDbLine
10
-603.48025466854415
20
866.78722245291146
30
0
11
-612.48025466854415
21
866.78722245291124
31
0
0
LINE
5
145
100
AcDbEntity
8
0
100
AcDbLine
10
-612.48025466854415
20
866.78722245291124
30
0
11
-612.48025466854415
21
852.28722245291124
31
0
0
LINE
5
146
100
AcDbEntity
8
0
100
AcDbLine
10
-612.48025466854415
20
852.28722245291124
30
0
11
-603.48025466854415
21
852.28722245291124
31
0
0
LINE
5
147
100
AcDbEntity
8
0
100
AcDbLine
10
-603.48025466854415
20
852.28722245291124
30
0
11
-603.48025466854415
21
837.28722245291124
31
1.1102230246251565e-15
0
LINE
5
148
100
AcDbEntity
8
0
100
AcDbLine
10
-603.48025466854415
20
837.28722245291124
30
1.1102230246251565e-15
11
-612.48025466854415
21
837.28722245291124
31
0
0
LINE
5
149
100
AcDbEntity
8
0
100
AcDbLine
10
-612.48025466854415
20
837.28722245291124
30
0
11
-612.48025466854403
21
822.28723428156013
31
-1.1102230246251565e-15
0
LINE
5
150
100
AcDbEntity
8
0
100
AcDbLine
10
-612.48025466854403
20
822.28723428156013
30
-1.1102230246251565e-15
11
-587.48025466854403
21
822.28723428156013
31
-7.8886090522101181e-30
0
LINE
5
151
100
AcDbEntity
8
0
100
AcDbLine
10
-587.48025466854403
20
822.28723428156013
30
-7.8886090522101181e-30
11
-587.48025466854415
21
831.28723428156036
31
0
0
LWPOLYLINE
5
152
100
AcDbEntity
8
0
100
AcDbPolyline
90
4
70
1
43
0.0
10
-537.48032472891521
20
950.28722245291169
10
-537.48032472891521
20
959.28722245291169
10
-517.48032472891521
20
959.28722245291169
10
-517.48032472891521
20
950.28722245291169
0
LWPOLYLINE
5
153
100
AcDbEntity
8
0
100
AcDbPolyline
90
4
70
1
43
0.0
10
-574.98032472891521
20
950.28722245291135
10
-574.98032472891521
20
959.28722245291146
10
-554.98032472891521
20
959.28722245291146
10
-554.98032472891521
20
950.28722245291146
0
LWPOLYLINE
5
154
100
AcDbEntity
8
0
100
AcDbPolyline
90
4
70
1
43
0.0
10
-499.98032472891504
20
911.28722245291158
10
-499.98032472891504
20
920.28722245291169
10
-479.98032472891504
20
920.28722245291169
10
-479.98032472891504
20
911.28722245291158
0
LWPOLYLINE
5
155
100
AcDbEntity
8
0
100
AcDbPolyline
90
4
70
1
43
0.0
10
-537.48032472891498
20
911.28722245291158
10
-537.48032472891498
20
920.28722245291169
10
-517.48032472891498
20
920.28722245291169
10
-517.48032472891498
20
911.28722245291158
0
LWPOLYLINE
5
156
100
AcDbEntity
8
0
100
AcDbPolyline
90
4
70
1
43
0.0
10
-499.98032472891521
20
950.28722245291181
10
-499.98032472891521
20
959.28722245291181
10
-479.98032472891521
20
959.28722245291169
10
-479.98032472891521
20
950.28722245291169
0
LINE
5
157
100
AcDbEntity
8
0
100
AcDbLine
10
-563.98032472891418
20
895.28722245291135
30
0
11
-563.98032472891509
21
911.28723428156025
31
1.1102230246251565e-15
0
LINE
5
158
100
AcDbEntity
8
0
100
AcDbLine
10
-563.98032472891498
20
911.28722245291158
30
7.1054273576010019e-14
11
-574.98032472891498
21
911.28722245291158
31
7.1054273576010019e-14
0
LINE
5
159
100
AcDbEntity
8
0
100
AcDbLine
10
-574.98032472891498
20
911.28722245291158
30
7.1054273576010019e-14
11
-574.98032472891498
21
920.28722245291169
31
7.049916206369744e-14
0
LINE
5
160
100
AcDbEntity
8
0
100
AcDbLine
10
-574.98032472891498
20
920.28722245291169
30
7.049916206369744e-14
11
-554.98032472891498
21
920.28722245291135
31
0
0
LINE
5
161
100
AcDbEntity
8
0
100
AcDbLine
10
-554.98032472891498
20
920.28722245291135
30
0
11
-554.98032472891418
21
895.28722245291146
31
-7.1054273576010019e-14
0
LINE
5
162
100
AcDbEntity
8
0
100
AcDbLine
10
-554.98032472891418
20
895.28722245291146
30
-7.1054273576010019e-14
11
-563.98032472891418
21
895.28722245291135
31
0
0
LWPOLYLINE
5
163
100
AcDbEntity
8
0
100
AcDbPolyline
90
4
70
1
43
0.0
10
-563.98032472891384
20
862.28722245291146
10
-563.98032472891418
20
880.28722245291146
10
-554.98032472891418
20
880.28722245291146
10
-554.98032472891384
20
862.28722245291146
0
LWPOLYLINE
5
164
100
AcDbEntity
8
0
100
AcDbPolyline
90
28
70
1
43
0.0
10
-317.62573294857469
20
1018.1499131760421
10
-317.62573294857469
20
1037.9716516812548
10
-436.5460443127472
20
1037.9716516812546
10
-436.54604431274714
20
782.14991317604188
10
-317.62573294857464
20
782.14991317604176
10
-317.62573294857469
20
802.14991317604188
10
-308.62573294857464
20
802.14991317604188
10
-308.62573294857469
20
821.48324650937514
10
-317.62573294857469
20
821.48324650937525
10
-317.62573294857469
20
841.48324650937525
10
-308.62573294857469
20
841.48324650937525
10
-308.62573294857469
20
860.81657984270851
10
-317.62573294857469
20
860.81657984270851
10
-317.62573294857469
20
880.81657984270851
10
-308.62573294857464
20
880.81657984270862
10
-308.62573294857469
20
900.14991317604188
10
-317.62573294857469
20
900.14991317604188
10
-317.62573294857469
20
920.14991317604188
10
-308.62573294857469
20
920.14991317604176
10
-308.62573294857469
20
939.48324650937525
10
-317.62573294857469
20
939.48324650937525
10
-317.62573294857469
20
959.48324650937502
10
-308.62573294857469
20
959.48324650937525
10
-308.62573294857469
20
978.81657984270862
10
-317.62573294857469
20
978.81657984270862
10
-317.62573294857469
20
998.81657984270873
10
-308.62573294857469
20
998.81657984270873
10
-308.62573294857469
20
1018.1499131760421
0
LWPOLYLINE
5
165
100
AcDbEntity
8
0
100
AcDbPolyline
90
28
70
1
43
0.0
10
-174.94030751482421
20
995.63626520932098
10
-183.94030751482418
20
995.63626520932098
10
-183.94030751482427
20
1014.9695985426542
10
-174.94030751482427
20
1014.9695985426546
10
-174.94030751482433
20
1034.791337047867
10
-302.86061887899677
20
1034.7913370478664
10
-302.86061887899552
20
778.9695985426539
10
-174.94030751482308
20
778.96959854265458
10
-174.94030751482316
20
798.96959854265447
10
-183.94030751482316
20
798.96959854265447
10
-183.94030751482325
20
818.30293187598784
10
-174.94030751482327
20
818.30293187598784
10
-174.94030751482339
20
838.30293187598784
10
-183.94030751482336
20
838.30293187598784
10
-183.94030751482347
20
857.6362652093211
10
-174.94030751482347
20
857.63626520932098
10
-174.94030751482356
20
877.6362652093211
10
-183.94030751482359
20
877.6362652093211
10
-183.9403075148237
20
896.96959854265447
10
-174.9403075148237
20
896.96959854265447
10
-174.94030751482376
20
916.96959854265447
10
-183.94030751482376
20
916.96959854265413
10
-183.94030751482387
20
936.30293187598784
10
-174.94030751482387
20
936.30293187598772
10
-174.94030751482399
20
956.30293187598772
10
-183.94030751482399
20
956.30293187598772
10
-183.94030751482404
20
975.63626520932087
10
-174.94030751482404
20
975.63626520932121
0
CIRCLE
5
166
100
AcDbEntity
8
0
100
AcDbCircle
10
-292.85895703350917
20
756.94022180152638
30
0
40
0.50000000000000711
210
-3.944304526105059e-31
220
-2.5179581780836233e-45
230
1
0
CIRCLE
5
167
100
AcDbEntity
8
0
100
AcDbCircle
10
-311.1089566255896
20
720.44022261736473
30
0
40
0.50000000000000711
210
-3.944304526105059e-31
220
-2.5179581780836233e-45
230
1
0
CIRCLE
5
168
100
AcDbEntity
8
0
100
AcDbCircle
10
-274.51067409564484
20
720.44452808489973
30
0
40
0.50000000000000711
210
-3.944304526105059e-31
220
-2.5179581780836233e-45
230
1
0
LWPOLYLINE
5
169
100
AcDbEntity
8
0
100
AcDbPolyline
90
18
70
1
43
0.0
10
-320.9734408474061
20
756.63680229857061
42
0.21796631675720321
10
-322.35896136602179
20
753.60951026749399
10
-322.3589613660215
20
718.4402157851822
42
0.41421356237308982
10
-318.35896136602139
20
714.44021578518243
10
-306.81002599073821
20
714.44021578518232
42
0.37176272242574704
10
-302.85321214132273
20
717.85402114082444
10
-299.86470996487151
20
738.02641083187154
42
-0.37176272242573161
10
-295.90789611545597
20
741.4402161875139
10
-291.68622907204764
20
741.4402161875139
42
-0.36154356397677673
10
-287.7531010521098
20
738.16857322824319
10
-283.9648205921485
20
717.71185874445337
42
0.36154356397677789
10
-280.03169257221072
20
714.44021578518255
10
-267.35896048685288
20
714.44021578518255
42
0.41421356237310542
10
-263.35896048685299
20
718.44021578518266
10
-263.35896048685328
20
770.44021667925233
42
0.41421356237312623
10
-267.35896048685339
20
774.44021667925256
10
-298.87077499451266
20
774.4402166792521
42
0.1799963466406044
10
-301.48525447589708
20
773.46750871032873
0
LWPOLYLINE
5
170
100
AcDbEntity
8
0
100
AcDbPolyline
90
4
70
1
43
0.0
10
-458.95751944151846
20
704.99725583223267
10
-336.95751944151846
20
704.99725583223267
10
-336.95751944151846
20
774.99725583223267
10
-458.95751944151846
20
774.99725583223267
0
LINE
5
171
100
AcDbEntity
8
0
100
AcDbLine
10
-496.09176186276113
20
724.35759493750083
30
0
11
-496.09176186276113
21
715.35759493750083
31
-5.5511151231257827e-16
0
LINE
5
172
100
AcDbEntity
8
0
100
AcDbLine
10
-496.09176186276113
20
715.35759493750083
30
-5.5511151231257827e-16
11
-476.09176186276102
21
715.35759493750083
31
-7.1054273576010019e-14
0
LINE
5
173
100
AcDbEntity
8
0
100
AcDbLine
10
-476.09176186276102
20
715.35759493750083
30
-7.1054273576010019e-14
11
-476.09176186276113
21
740.35759493750083
31
-7.1054273576010019e-14
0
LINE
5
174
100
AcDbEntity
8
0
100
AcDbLine
10
-476.09176186276113
20
740.35759493750083
30
-7.1054273576010019e-14
11
-485.09176186276108
21
740.35759493750083
31
0
0
LINE
5
175
100
AcDbEntity
8
0
100
AcDbLine
10
-485.09176186276108
20
740.35759493750083
30
0
11
-485.09176186276108
21
755.35759493750083
31
-1.1102230246251565e-15
0
LINE
5
176
100
AcDbEntity
8
0
100
AcDbLine
10
-485.09176186276108
20
755.35759493750083
30
-1.1102230246251565e-15
11
-476.09176186276113
21
755.35759493750083
31
0
0
LINE
5
177
100
AcDbEntity
8
0
100
AcDbLine
10
-476.09176186276113
20
755.35759493750083
30
0
11
-476.09176186276113
21
773.35759493750072
31
1.1102230246251565e-15
0
LINE
5
178
100
AcDbEntity
8
0
100
AcDbLine
10
-476.09176186276113
20
773.35759493750072
30
1.1102230246251565e-15
11
-485.09176186276108
21
773.35759493750072
31
0
0
LINE
5
179
100
AcDbEntity
8
0
100
AcDbLine
10
-485.09176186276108
20
773.35759493750072
30
0
11
-485.09176186276108
21
788.35759493750072
31
-1.1102230246251565e-15
0
LINE
5
180
100
AcDbEntity
8
0
100
AcDbLine
10
-485.09176186276108
20
788.35759493750072
30
-1.1102230246251565e-15
11
-476.09176186276113
21
788.35759493750072
31
7.1054273576010019e-14
0
LINE
5
181
100
AcDbEntity
8
0
100
AcDbLine
10
-476.09176186276113
20
788.35759493750072
30
7.1054273576010019e-14
11
-476.09176022363317
21
804.35760676614973
31
7.1054273576010019e-14
0
LINE
5
182
100
AcDbEntity
8
0
100
AcDbLine
10
-476.09176022363317
20
804.35760676614973
30
7.1054273576010019e-14
11
-501.09176022363317
21
804.35760676614962
31
0
0
LINE
5
183
100
AcDbEntity
8
0
100
AcDbLine
10
-501.09176022363317
20
804.35760676614962
30
0
11
-501.09176022363317
21
813.35760676614973
31
5.5511151231257827e-16
0
LINE
5
184
100
AcDbEntity
8
0
100
AcDbLine
10
-501.09176022363306
20
813.35759493750083
30
0
11
-533.59176022363317
21
813.35759493750083
31
-8.8746851837363828e-30
0
LINE
5
185
100
AcDbEntity
8
0
100
AcDbLine
10
-533.59176022363317
20
813.35759493750083
30
-8.8746851837363828e-30
11
-533.59176022363317
21
804.35760676614962
31
7.1054273576010019e-14
0
LINE
5
186
100
AcDbEntity
8
0
100
AcDbLine
10
-533.59176022363317
20
804.35760676614962
30
7.1054273576010019e-14
11
-558.59176022363317
21
804.35760676614962
31
0
0
LINE
5
187
100
AcDbEntity
8
0
100
AcDbLine
10
-558.59176022363317
20
804.35760676614962
30
0
11
-558.59176022363317
21
813.35759493750072
31
0
0
LINE
5
188
100
AcDbEntity
8
0
100
AcDbLine
10
-558.59176022363317
20
813.35759493750072
30
0
11
-591.09176022363306
21
813.35759493750061
31
-1.7256332301709633e-30
0
LINE
5
189
100
AcDbEntity
8
0
100
AcDbLine
10
-591.09176022363317
20
813.35760676614973
30
0
11
-591.09176022363317
21
804.35760676614962
31
-5.5511151231257827e-16
0
LINE
5
190
100
AcDbEntity
8
0
100
AcDbLine
10
-591.09176022363317
20
804.35760676614962
30
-5.5511151231257827e-16
11
-616.09176022363317
21
804.35760676614973
31
7.1054273576010019e-14
0
LINE
5
191
100
AcDbEntity
8
0
100
AcDbLine
10
-616.09176022363317
20
804.35760676614973
30
7.1054273576010019e-14
11
-616.09176186276113
21
788.35759493750072
31
7.1054273576010019e-14
0
LINE
5
192
100
AcDbEntity
8
0
100
AcDbLine
10
-616.09176186276113
20
788.35759493750072
30
7.1054273576010019e-14
11
-607.09176186276113
21
788.35759493750072
31
7.1054273576010019e-14
0
LINE
5
193
100
AcDbEntity
8
0
100
AcDbLine
10
-607.09176186276113
20
788.35759493750072
30
7.1054273576010019e-14
11
-607.09176186276113
21
773.35759493750072
31
7.2164496600635175e-14
0
LINE
5
194
100
AcDbEntity
8
0
100
AcDbLine
10
-607.09176186276113
20
773.35759493750072
30
7.2164496600635175e-14
11
-616.09176186276113
21
773.35759493750061
31
7.1054273576010019e-14
0
LINE
5
195
100
AcDbEntity
8
0
100
AcDbLine
10
-616.09176186276113
20
773.35759493750061
30
7.1054273576010019e-14
11
-616.09176186276113
21
755.35759493750061
31
6.9944050551384862e-14
0
LINE
5
196
100
AcDbEntity
8
0
100
AcDbLine
10
-616.09176186276113
20
755.35759493750061
30
6.9944050551384862e-14
11
-607.09176186276113
21
755.35759493750083
31
-7.1054273576010019e-14
0
LINE
5
197
100
AcDbEntity
8
0
100
AcDbLine
10
-607.09176186276113
20
755.35759493750083
30
-7.1054273576010019e-14
11
-607.09176186276113
21
740.35759493750083
31
-6.9944050551384862e-14
0
LINE
5
198
100
AcDbEntity
8
0
100
AcDbLine
10
-607.09176186276113
20
740.35759493750083
30
-6.9944050551384862e-14
11
-616.09176186276113
21
740.35759493750083
31
0
0
LINE
5
199
100
AcDbEntity
8
0
100
AcDbLine
10
-616.09176186276113
20
740.35759493750083
30
0
11
-616.09176186276102
21
715.35759493750083
31
0
0
LINE
5
200
100
AcDbEntity
8
0
100
AcDbLine
10
-616.09176186276102
20
715.35759493750083
30
0
11
-596.09176186276113
21
715.35759493750083
31
3.0568360077314207e-29
0
LINE
5
201
100
AcDbEntity
8
0
100
AcDbLine
10
-596.09176186276113
20
715.35759493750083
30
3.0568360077314207e-29
11
-596.09176186276113
21
724.35759493750072
31
5.5511151231257827e-16
0
LINE
5
202
100
AcDbEntity
8
0
100
AcDbLine
10
-596.09176186276113
20
724.35759493750072
30
5.5511151231257827e-16
11
-576.09176186276113
21
724.35759493750072
31
0
0
LINE
5
203
100
AcDbEntity
8
0
100
AcDbLine
10
-576.09176186276113
20
724.35759493750072
30
0
11
-576.09176186276113
21
715.35759493750061
31
-5.5511151231257827e-16
0
LINE
5
204
100
AcDbEntity
8
0
100
AcDbLine
10
-576.09176186276113
20
715.35759493750061
30
-5.5511151231257827e-16
11
-556.09176186276113
21
715.35759493750061
31
1.1093356479670479e-30
0
LINE
5
205
100
AcDbEntity
8
0
100
AcDbLine
10
-556.09176186276113
20
715.35759493750061
30
1.1093356479670479e-30
11
-556.09176186276113
21
724.35759493750072
31
5.5511151231257827e-16
0
LINE
5
206
100
AcDbEntity
8
0
100
AcDbLine
10
-556.09176186276113
20
724.35759493750072
30
5.5511151231257827e-16
11
-536.09176186276113
21
724.35759493750072
31
0
0
LINE
5
207
100
AcDbEntity
8
0
100
AcDbLine
10
-536.09176186276113
20
724.35759493750072
30
0
11
-536.09176186276113
21
715.35759493750061
31
-5.5511151231257827e-16
0
LINE
5
208
100
AcDbEntity
8
0
100
AcDbLine
10
-536.09176186276113
20
715.35759493750061
30
-5.5511151231257827e-16
11
-516.09176186276113
21
715.35759493750061
31
1.1093356479670479e-30
0
LINE
5
209
100
AcDbEntity
8
0
100
AcDbLine
10
-516.09176186276113
20
715.35759493750061
30
1.1093356479670479e-30
11
-516.09176186276113
21
724.35759493750083
31
-7.049916206369744e-14
0
LINE
5
210
100
AcDbEntity
8
0
100
AcDbLine
10
-516.09176186276113
20
724.35759493750083
30
-7.049916206369744e-14
11
-496.09176186276113
21
724.35759493750083
31
0
0
CIRCLE
5
211
100
AcDbEntity
8
0
100
AcDbCircle
10
-546.09184567449415
20
759.35760420273573
30
0
40
10.650000000000158
210
-6.2505193411220277e-32
220
1.1102230246251565e-16
230
1
0
LWPOLYLINE
5
212
100
AcDbEntity
8
0
100
AcDbPolyline
90
28
70
1
43
0.0
10
-492.91679929211847
20
660.43426576654724
10
-472.91679929211847
20
660.43426576654724
10
-472.91679929211847
20
676.43433582691841
10
-463.91679929211841
20
676.43433582691841
10
-463.91679929211841
20
699.93426576654883
10
-483.91679929211818
20
699.93426576654872
10
-483.91679929211813
20
708.93426576654815
10
-503.91679929211818
20
708.93426576654849
10
-503.91679929211813
20
699.93426576654815
10
-523.91679929211818
20
699.93426576654838
10
-523.91679929211807
20
708.93426576654804
10
-543.91679929211818
20
708.93426576654838
10
-543.91679929211807
20
699.93426576654792
10
-563.91679929211818
20
699.93426576654826
10
-563.91679929211807
20
708.9342657665477
10
-583.91679929211818
20
708.93426576654815
10
-583.91679929211807
20
699.93426576654758
10
-603.91679929211841
20
699.93426576654792
10
-603.91679929211841
20
676.43433582691841
10
-594.91679929211841
20
676.43433582691841
10
-594.91679929211841
20
660.43426576654724
10
-574.9167992921183
20
660.43426576654724
10
-574.9167992921183
20
651.43426576654724
10
-543.91679929211841
20
651.43426576654724
10
-543.91679929211841
20
660.43426576654724
10
-523.91679929211841
20
660.43426576654724
10
-523.91679929211841
20
651.43426576654724
10
-492.91679929211847
20
651.43426576654724
0
LWPOLYLINE
5
213
100
AcDbEntity
8
0
100
AcDbPolyline
90
53
70
1
43
0.0
10
-580.57453926217192
20
607.51330615499126
10
-589.57453926217204
20
607.51330615499126
10
-589.57453926217204
20
587.51330615499126
10
-580.57453926217192
20
587.51330615499126
10
-580.57453926217192
20
570.01330615499114
10
-589.57453926217204
20
570.01330615499126
10
-589.57453926217204
20
550.01330615499126
10
-580.57453926217192
20
550.01330615499126
10
-580.57453926217192
20
532.51330615499126
10
-589.57453926217204
20
532.51330615499137
10
-589.57453926217204
20
512.51330615499137
10
-580.57453926217192
20
512.51330615499126
10
-580.57453926217192
20
495.01330615499143
10
-589.57453926217204
20
495.01330615499143
10
-589.57453926217204
20
484.01330615499143
10
-519.57453926217204
20
414.0133061549912
10
-449.57453926217198
20
484.01330615499126
10
-449.57453926217198
20
495.0133061549912
10
-458.57453926217192
20
495.01330615499126
10
-458.57453926217192
20
512.51330615499126
10
-449.57453926217198
20
512.51330615499126
10
-449.57453926217198
20
532.51330615499126
10
-458.57453926217192
20
532.51330615499126
10
-458.57453926217192
20
550.01330615499126
10
-449.57453926217198
20
550.01330615499126
10
-449.57453926217198
20
570.01330615499126
10
-458.57453926217192
20
570.01330615499126
10
-458.57453926217192
20
587.51330615499126
10
-449.57453926217198
20
587.51330615499126
10
-449.57453926217198
20
607.51330615499126
10
-458.57453926217192
20
607.51330615499126
10
-458.57453926217192
20
625.01330615499126
10
-449.57453926217198
20
625.01330615499137
10
-449.57453926217198
20
645.01330615499171
10
-464.57453926217198
20
645.01330615499171
10
-464.57453926217198
20
636.0133061549916
10
-480.82453926217198
20
636.0133061549916
10
-480.82453926217198
20
645.01330615499171
10
-495.82453926217198
20
645.01330615499171
10
-495.82453926217198
20
636.0133061549916
10
-512.07453926217204
20
636.0133061549916
10
-512.07453926217204
20
645.01330615499171
10
-527.07453926217204
20
645.01330615499171
10
-527.07453926217204
20
636.01330615499171
10
-543.32453926217204
20
636.0133061549916
10
-543.32453926217204
20
645.01330615499171
10
-558.32453926217204
20
645.01330615499171
10
-558.32453926217204
20
636.01330615499171
10
-574.57453926217204
20
636.0133061549916
10
-574.57453926217204
20
645.01330615499171
10
-589.57453926217204
20
645.01330615499171
10
-589.57453926217204
20
625.01330615499137
10
-580.57453926217192
20
625.01330615499126
0
LWPOLYLINE
5
214
100
AcDbEntity
8
0
100
AcDbPolyline
90
37
70
1
43
0.0
10
-310.02928470328987
20
598.96987746080492
10
-301.02928470328993
20
598.96987746080492
10
-301.02928470328993
20
618.96987746080492
10
-310.02928470328987
20
618.96987746080504
10
-310.02928470328987
20
636.46987746080492
10
-301.02928470328993
20
636.46987746080504
10
-301.02928470328993
20
656.46987746080504
10
-310.02928470328987
20
656.46987746080504
10
-310.02928470328987
20
673.96987746080504
10
-301.02928470328993
20
673.96987746080504
10
-301.02928470328993
20
693.96987746080549
10
-441.02928470328993
20
693.96987746080515
10
-441.02928470328993
20
673.9698774608047
10
-432.02928470328993
20
673.96987746080481
10
-432.02928470328993
20
656.46987746080481
10
-441.02928470328993
20
656.4698774608047
10
-441.02928470328993
20
636.4698774608047
10
-432.02928470328993
20
636.46987746080481
10
-432.02928470328993
20
618.96987746080481
10
-441.02928470328993
20
618.96987746080481
10
-441.02928470328993
20
598.96987746080481
10
-432.02928470328993
20
598.96987746080481
10
-432.02928470328993
20
581.46987746080481
10
-441.02928470328993
20
581.46987746080481
10
-441.02928470328993
20
561.46987746080492
10
-432.02928470328993
20
561.46987746080492
10
-432.02928470328993
20
543.96987746080492
10
-441.02928470328993
20
543.96987746080481
10
-441.02928470328993
20
532.96987746080481
10
-371.02928470328993
20
462.96987746080475
10
-301.02928470328993
20
532.96987746080481
10
-301.02928470328993
20
543.96987746080515
10
-310.02928470328993
20
543.9698774608047
10
-310.02928470328987
20
561.4698774608047
10
-301.02928470328993
20
561.46987746080481
10
-301.02928470328993
20
581.46987746080492
10
-310.02928470328987
20
581.46987746080504
0
LWPOLYLINE
5
215
100
AcDbEntity
8
0
100
AcDbPolyline
90
56
70
1
43
0.0
10
-288.4538411776407
20
627.87368730986373
10
-288.4538411776407
20
597.87368730986373
10
-282.45384117764075
20
597.87368730986373
10
-282.45384117764075
20
588.87368730986373
10
-297.45384117764075
20
588.87368730986373
10
-297.45384117764075
20
573.87367548121483
10
-288.4538411776407
20
573.87367548121483
10
-288.4538411776407
20
559.37367548121483
10
-297.45384117764075
20
559.37367548121495
10
-297.45384117764075
20
544.37367548121495
10
-288.4538411776407
20
544.37367548121483
10
-288.4538411776407
20
529.87367548121483
10
-297.45384117764075
20
529.87367548121483
10
-297.45384117764075
20
514.87367548121483
10
-288.4538411776407
20
514.87367548121483
10
-288.4538411776407
20
499.87368730986373
10
-268.4538411776407
20
499.87368730986373
10
-268.4538411776407
20
508.87368730986384
10
-237.45384117764075
20
508.87368730986384
10
-237.45384117764075
20
499.87368730986373
10
-217.45384117764075
20
499.87368730986373
10
-217.45384117764075
20
508.87368730986384
10
-186.45384117764075
20
508.87368730986384
10
-186.45384117764075
20
499.87368730986373
10
-166.45384117764075
20
499.87368730986373
10
-166.45384117764075
20
514.87367548121483
10
-157.45384117764075
20
514.87367548121483
10
-157.45384117764075
20
529.87367548121483
10
-166.45384117764075
20
529.87367548121483
10
-166.45384117764075
20
544.37367548121483
10
-157.45384117764075
20
544.37367548121483
10
-157.45384117764075
20
559.37367548121483
10
-166.45384117764075
20
559.37367548121495
10
-166.45384117764075
20
573.87367548121483
10
-157.45384117764075
20
573.87367548121483
10
-157.45384117764075
20
588.87368730986373
10
-172.45384117764075
20
588.87368730986373
10
-172.45384117764075
20
597.87368730986373
10
-166.45384117764075
20
597.87368730986373
10
-166.45384117764075
20
627.87368730986373
10
-172.45384117764075
20
627.87368730986373
10
-172.45384117764075
20
636.87368730986373
10
-188.70384117764075
20
636.87368730986361
10
-188.70384117764075
20
627.87368730986361
10
-203.70384117764075
20
627.87368730986373
10
-203.70384117764075
20
636.87368730986373
10
-219.95384117764075
20
636.87368730986361
10
-219.95384117764075
20
627.87368730986361
10
-234.95384117764075
20
627.87368730986373
10
-234.95384117764075
20
636.87368730986373
10
-251.20384117764075
20
636.87368730986361
10
-251.20384117764075
20
627.87368730986361
10
-266.20384117764075
20
627.87368730986373
10
-266.20384117764075
20
636.87368730986373
10
-282.45384117764075
20
636.87368730986373
10
-282.45384117764075
20
627.87368730986373
0
LWPOLYLINE
5
216
100
AcDbEntity
8
0
100
AcDbPolyline
90
4
70
1
43
0.0
10
-251.20384117764075
20
588.87368730986373
10
-266.20384117764075
20
588.87368730986373
10
-266.20384117764075
20
597.87368730986373
10
-251.20384117764075
20
597.87368730986373
0
LWPOLYLINE
5
217
100
AcDbEntity
8
0
100
AcDbPolyline
90
4
70
1
43
0.0
10
-219.95384117764075
20
588.87368730986373
10
-234.95384117764075
20
588.87368730986373
10
-234.95384117764075
20
597.87368730986373
10
-219.95384117764075
20
597.87368730986373
0
LWPOLYLINE
5
218
100
AcDbEntity
8
0
100
AcDbPolyline
90
4
70
1
43
0.0
10
-188.70384117764075
20
588.87368730986373
10
-203.70384117764075
20
588.87368730986373
10
-203.70384117764075
20
597.87368730986373
10
-188.70384117764075
20
597.87368730986373
0
LINE
5
219
100
AcDbEntity
8
0
100
AcDbLine
10
-295.27574200060894
20
348.94646787865099
30
3.5527136788005009e-14
11
-295.27574200060906
21
364.94647970729989
31
3.4416913763379853e-14
0
LINE
5
220
100
AcDbEntity
8
0
100
AcDbLine
10
-295.27574352797819
20
364.94646787865094
30
0
11
-306.27574200060985
21
364.94646787865076
31
7.8886090522101181e-30
0
LINE
5
221
100
AcDbEntity
8
0
100
AcDbLine
10
-306.27574200060985
20
364.94646787865076
30
7.8886090522101181e-30
11
-306.27574200060985
21
373.94646787865094
31
-3.6637359812630166e-14
0
LINE
5
222
100
AcDbEntity
8
0
100
AcDbLine
10
-306.27574200060985
20
373.94646787865094
30
-3.6637359812630166e-14
11
-286.27574200060985
21
373.94646787865088
31
0
0
LINE
5
223
100
AcDbEntity
8
0
100
AcDbLine
10
-286.27574200060985
20
373.94646787865088
30
0
11
-286.275742000609
21
348.94646787865088
31
0
0
LINE
5
224
100
AcDbEntity
8
0
100
AcDbLine
10
-286.275742000609
20
348.94646787865088
30
0
11
-295.27574200060894
21
348.94646787865099
31
3.5527136788005009e-14
0
LWPOLYLINE
5
225
100
AcDbEntity
8
0
100
AcDbPolyline
90
4
70
1
43
0.0
10
-286.27574200060894
20
333.94646787865088
10
-286.27574200060872
20
315.94646787865088
10
-295.27574200060872
20
315.94646787865071
10
-295.27574200060889
20
333.94646787865099
0
LWPOLYLINE
5
226
100
AcDbEntity
8
0
100
AcDbPolyline
90
4
70
1
43
0.0
10
-268.77574200060991
20
403.94646787865105
10
-268.77574200060997
20
412.94646787865099
10
-248.77574200060994
20
412.94646787865105
10
-248.77574200060991
20
403.94646787865105
0
LWPOLYLINE
5
227
100
AcDbEntity
8
0
100
AcDbPolyline
90
4
70
1
43
0.0
10
-306.27574200060991
20
403.94646787865088
10
-306.27574200060997
20
412.94646787865076
10
-286.27574200060997
20
412.94646787865088
10
-286.27574200060991
20
403.94646787865088
0
LWPOLYLINE
5
228
100
AcDbEntity
8
0
100
AcDbPolyline
90
4
70
1
43
0.0
10
-231.27574200060985
20
364.94646787865116
10
-231.27574200060985
20
373.94646787865122
10
-211.27574200060985
20
373.94646787865111
10
-211.2757420006098
20
364.94646787865111
0
LWPOLYLINE
5
229
100
AcDbEntity
8
0
100
AcDbPolyline
90
4
70
1
43
0.0
10
-268.7757420006098
20
364.94646787865094
10
-268.77574200060985
20
373.94646787865099
10
-248.77574200060985
20
373.94646787865105
10
-248.77574200060985
20
364.94646787865099
0
LWPOLYLINE
5
230
100
AcDbEntity
8
0
100
AcDbPolyline
90
4
70
1
43
0.0
10
-231.27574200060991
20
403.94646787865111
10
-231.27574200060994
20
412.94646787865105
10
-211.27574200060994
20
412.94646787865128
10
-211.27574200060991
20
403.94646787865111
0
LINE
5
231
100
AcDbEntity
8
0
100
AcDbLine
10
-318.77567194023879
20
275.94647970729972
30
0
11
-318.77567194023885
21
284.94647970729977
31
-1.1102230246251565e-15
0
LINE
5
232
100
AcDbEntity
8
0
100
AcDbLine
10
-318.77567194023885
20
284.94647970729977
30
-1.1102230246251565e-15
11
-295.27574200060843
21
284.94647970729977
31
1.7763568394002505e-14
0
LINE
5
233
100
AcDbEntity
8
0
100
AcDbLine
10
-295.27574200060843
20
284.94647970729977
30
1.7763568394002505e-14
11
-295.2757420006086
21
300.94646787865076
31
1.6653345369377348e-14
0
LINE
5
234
100
AcDbEntity
8
0
100
AcDbLine
10
-295.2757420006086
20
300.94646787865076
30
1.6653345369377348e-14
11
-286.2757420006086
21
300.94646787865082
31
-1.7763568394002505e-14
0
LINE
5
235
100
AcDbEntity
8
0
100
AcDbLine
10
-286.2757420006086
20
300.94646787865082
30
-1.7763568394002505e-14
11
-286.27574200060837
21
275.94646787865076
31
-1.7763568394002505e-14
0
LINE
5
236
100
AcDbEntity
8
0
100
AcDbLine
10
-286.27574200060837
20
275.94647970729977
30
0
11
-173.77574200060948
21
275.94647970730023
31
-3.1554436208840472e-29
0
LINE
5
237
100
AcDbEntity
8
0
100
AcDbLine
10
-173.77574200060948
20
275.94647970730023
30
-3.1554436208840472e-29
11
-173.7757420006098
21
364.94646787865122
31
0
0
LINE
5
238
100
AcDbEntity
8
0
100
AcDbLine
10
-173.7757420006098
20
364.94646787865122
30
0
11
-193.77574200060977
21
364.94646787865122
31
3.5527136788005009e-14
0
LINE
5
239
100
AcDbEntity
8
0
100
AcDbLine
10
-193.77574200060977
20
364.94646787865122
30
3.5527136788005009e-14
11
-193.77574200060985
21
373.94646787865111
31
3.5527136788005009e-14
0
LINE
5
240
100
AcDbEntity
8
0
100
AcDbLine
10
-193.77574200060985
20
373.94646787865111
30
3.5527136788005009e-14
11
-173.77574200060985
21
373.94646787865128
31
0
0
LINE
5
241
100
AcDbEntity
8
0
100
AcDbLine
10
-173.77574200060985
20
373.94646787865128
30
0
11
-173.77574200060991
21
403.94646787865133
31
-2.2204460492503131e-15
0
LINE
5
242
100
AcDbEntity
8
0
100
AcDbLine
10
-173.77574200060991
20
403.94646787865133
30
-2.2204460492503131e-15
11
-193.77574200060991
21
403.94646787865128
31
3.5527136788005009e-14
0
LINE
5
243
100
AcDbEntity
8
0
100
AcDbLine
10
-193.77574200060991
20
403.94646787865128
30
3.5527136788005009e-14
11
-193.77574200060994
21
412.94646787865122
31
3.5527136788005009e-14
0
LINE
5
244
100
AcDbEntity
8
0
100
AcDbLine
10
-193.77574200060994
20
412.94646787865122
30
3.5527136788005009e-14
11
-173.77574200060997
21
412.94646787865133
31
0
0
LINE
5
245
100
AcDbEntity
8
0
100
AcDbLine
10
-173.77574200060997
20
412.94646787865133
30
0
11
-173.77574200061022
21
482.94646787865139
31
0
0
LINE
5
246
100
AcDbEntity
8
0
100
AcDbLine
10
-173.77574200061022
20
482.94646787865139
30
0
11
-193.77574200061025
21
482.94646787865133
31
3.5527136788005009e-14
0
LINE
5
247
100
AcDbEntity
8
0
100
AcDbLine
10
-193.77574200061025
20
482.94646787865133
30
3.5527136788005009e-14
11
-193.77574200061022
21
491.94646787865122
31
3.4416913763379853e-14
0
LINE
5
248
100
AcDbEntity
8
0
100
AcDbLine
10
-193.77574200061022
20
491.94645605000233
30
0
11
-211.27574200061022
21
491.94645605000221
31
0
0
LINE
5
249
100
AcDbEntity
8
0
100
AcDbLine
10
-211.27574200061022
20
491.94645605000221
30
0
11
-211.27574200061019
21
482.94646787865122
31
-5.5511151231257827e-16
0
LINE
5
250
100
AcDbEntity
8
0
100
AcDbLine
10
-211.27574200061019
20
482.94646787865122
30
-5.5511151231257827e-16
11
-231.27574200061022
21
482.94646787865105
31
3.5527136788005009e-14
0
LINE
5
251
100
AcDbEntity
8
0
100
AcDbLine
10
-231.27574200061022
20
482.94646787865105
30
3.5527136788005009e-14
11
-231.27574200061022
21
491.94645605000221
31
0
0
LINE
5
252
100
AcDbEntity
8
0
100
AcDbLine
10
-231.27574200061022
20
491.94645605000221
30
0
11
-248.77574200061022
21
491.94645605000204
31
0
0
LINE
5
253
100
AcDbEntity
8
0
100
AcDbLine
10
-248.77574200061022
20
491.94645605000204
30
0
11
-248.77574200061022
21
482.94646787865122
31
3.4972025275692431e-14
0
LINE
5
254
100
AcDbEntity
8
0
100
AcDbLine
10
-248.77574200061022
20
482.94646787865122
30
3.4972025275692431e-14
11
-268.77574200061025
21
482.94646787865088
31
0
0
LINE
5
255
100
AcDbEntity
8
0
100
AcDbLine
10
-268.77574200061025
20
482.94646787865088
30
0
11
-268.77574200061025
21
491.9464560500021
31
-3.5527136788005009e-14
0
LINE
5
256
100
AcDbEntity
8
0
100
AcDbLine
10
-268.77574200061025
20
491.9464560500021
30
-3.5527136788005009e-14
11
-286.27574200061025
21
491.94645605000204
31
3.5527136788005009e-14
0
LINE
5
257
100
AcDbEntity
8
0
100
AcDbLine
10
-286.27574200061025
20
491.94645605000204
30
3.5527136788005009e-14
11
-286.27574200061025
21
482.94646787865088
31
3.4972025275692431e-14
0
LINE
5
258
100
AcDbEntity
8
0
100
AcDbLine
10
-286.27574200061025
20
482.94646787865088
30
3.4972025275692431e-14
11
-306.27574200061025
21
482.94646787865082
31
-3.5527136788005009e-14
0
LINE
5
259
100
AcDbEntity
8
0
100
AcDbLine
10
-306.27574200061025
20
482.94646787865082
30
-3.5527136788005009e-14
11
-306.27574200061025
21
491.94645605000187
31
0
0
LINE
5
260
100
AcDbEntity
8
0
100
AcDbLine
10
-306.27574200061025
20
491.94645605000187
30
0
11
-323.77574200061019
21
491.94645605000187
31
3.5527136788005009e-14
0
LINE
5
261
100
AcDbEntity
8
0
100
AcDbLine
10
-323.77574200061019
20
491.94645605000187
30
3.5527136788005009e-14
11
-323.77574200061019
21
482.94646787865076
31
3.5527136788005009e-14
0
LINE
5
262
100
AcDbEntity
8
0
100
AcDbLine
10
-323.77574200061019
20
482.94646787865076
30
3.5527136788005009e-14
11
-343.77567194023953
21
482.94646787865076
31
0
0
LINE
5
263
100
AcDbEntity
8
0
100
AcDbLine
10
-343.77567194023953
20
482.94646787865076
30
0
11
-343.77567194023936
21
412.94646787865065
31
4.4408920985006262e-15
0
LINE
5
264
100
AcDbEntity
8
0
100
AcDbLine
10
-343.77567194023936
20
412.94646787865065
30
4.4408920985006262e-15
11
-323.77574200060997
21
412.94646787865082
31
0
0
LINE
5
265
100
AcDbEntity
8
0
100
AcDbLine
10
-323.77574200060997
20
412.94646787865082
30
0
11
-323.77574200060991
21
403.94646787865071
31
1.1102230246251565e-15
0
LINE
5
266
100
AcDbEntity
8
0
100
AcDbLine
10
-323.77574200060991
20
403.94646787865071
30
1.1102230246251565e-15
11
-343.77567194023925
21
403.94646787865076
31
0
0
LINE
5
267
100
AcDbEntity
8
0
100
AcDbLine
10
-343.77567194023925
20
403.94646787865076
30
0
11
-343.77567194023919
21
373.94646787865076
31
2.2204460492503131e-15
0
LINE
5
268
100
AcDbEntity
8
0
100
AcDbLine
10
-343.77567194023919
20
373.94646787865076
30
2.2204460492503131e-15
11
-323.77574200060985
21
373.94646787865076
31
3.5527136788005009e-14
0
LINE
5
269
100
AcDbEntity
8
0
100
AcDbLine
10
-323.77574200060985
20
373.94646787865076
30
3.5527136788005009e-14
11
-323.77574200060985
21
364.94646787865088
31
3.5527136788005009e-14
0
LINE
5
270
100
AcDbEntity
8
0
100
AcDbLine
10
-323.77574200060985
20
364.94646787865088
30
3.5527136788005009e-14
11
-334.77567194023919
21
364.94646787865071
31
-3.5527136788005009e-14
0
LINE
5
271
100
AcDbEntity
8
0
100
AcDbLine
10
-334.77567194023919
20
364.94646787865071
30
-3.5527136788005009e-14
11
-334.77567194023914
21
349.94646787865076
31
3.6637359812630166e-14
0
LINE
5
272
100
AcDbEntity
8
0
100
AcDbLine
10
-334.77567194023914
20
349.94646787865076
30
3.6637359812630166e-14
11
-343.77567194023914
21
349.94646787865076
31
-3.5527136788005009e-14
0
LINE
5
273
100
AcDbEntity
8
0
100
AcDbLine
10
-343.77567194023914
20
349.94646787865076
30
-3.5527136788005009e-14
11
-343.77567194023902
21
335.44646787865076
31
-3.5527136788005009e-14
0
LINE
5
274
100
AcDbEntity
8
0
100
AcDbLine
10
-343.77567194023902
20
335.44646787865076
30
-3.5527136788005009e-14
11
-334.77567194023902
21
335.44646787865076
31
0
0
LINE
5
275
100
AcDbEntity
8
0
100
AcDbLine
10
-334.77567194023902
20
335.44646787865076
30
0
11
-334.77567194023896
21
320.44646787865082
31
3.6637359812630166e-14
0
LINE
5
276
100
AcDbEntity
8
0
100
AcDbLine
10
-334.77567194023896
20
320.44646787865082
30
3.6637359812630166e-14
11
-343.77567194023896
21
320.44646787865065
31
0
0
LINE
5
277
100
AcDbEntity
8
0
100
AcDbLine
10
-343.77567194023896
20
320.44646787865065
30
0
11
-343.77567194023896
21
305.94646787865076
31
0
0
LINE
5
278
100
AcDbEntity
8
0
100
AcDbLine
10
-343.77567194023896
20
305.94646787865076
30
0
11
-334.77567194023891
21
305.94646787865082
31
1.7763568394002511e-14
0
LINE
5
279
100
AcDbEntity
8
0
100
AcDbLine
10
-334.77567194023891
20
305.94646787865082
30
1.7763568394002511e-14
11
-334.77567194023885
21
290.94646787865076
31
1.8873791418627661e-14
0
LINE
5
280
100
AcDbEntity
8
0
100
AcDbLine
10
-334.77567194023885
20
290.94646787865076
30
1.8873791418627661e-14
11
-343.77567194023891
21
290.94646787865071
31
-7.8886090522101181e-30
0
LINE
5
281
100
AcDbEntity
8
0
100
AcDbLine
10
-343.77567194023891
20
290.94646787865071
30
-7.8886090522101181e-30
11
-343.77567194023879
21
275.94647970729972
31
0
0
LINE
5
282
100
AcDbEntity
8
0
100
AcDbLine
10
-343.77567194023879
20
275.94647970729972
30
0
11
-318.77567194023879
21
275.94647970729972
31
0
0
CIRCLE
5
283
100
AcDbEntity
8
0
100
AcDbCircle
10
-387.19765857244658
20
334.50023623903303
30
0
40
1.25
210
0
220
-0
230
1
0
LWPOLYLINE
5
284
100
AcDbEntity
8
0
100
AcDbPolyline
90
4
70
1
43
0.0
10
-393.38667325117876
20
450.54860691493076
10
-393.38667325117848
20
391.58477622372948
10
-452.34748929317573
20
391.58477622372914
10
-452.34748929317607
20
450.54860691493042
0
CIRCLE
5
285
100
AcDbEntity
8
0
100
AcDbCircle
10
-457.19765857244676
20
334.5002362390328
30
0
40
1.2500000000000033
210
0
220
-0
230
1
0
CIRCLE
5
286
100
AcDbEntity
8
0
100
AcDbCircle
10
-457.19765857244738
20
454.50023623903303
30
0
40
1.2500000000000033
210
0
220
-0
230
1
0
CIRCLE
5
287
100
AcDbEntity
8
0
100
AcDbCircle
10
-457.19765857244727
20
386.73460694445765
30
0
40
1.25
210
0
220
-0
230
1
0
CIRCLE
5
288
100
AcDbEntity
8
0
100
AcDbCircle
10
-387.19765857244727
20
454.50023623903337
30
3.5527136788005009e-14
40
1.25
210
0
220
-0
230
1
0
LWPOLYLINE
5
289
100
AcDbEntity
8
0
100
AcDbPolyline
90
53
70
1
43
0.0
10
-361.98667174020022
20
309.38477536765788
10
-352.98667174020022
20
309.38477536765794
10
-352.98667174020039
20
329.38477536765799
10
-361.98667174020039
20
329.38477536765788
10
-361.98667174020045
20
346.88477536765794
10
-352.98667174020045
20
346.88477536765794
10
-352.98667174020056
20
366.88477536765794
10
-361.98667174020051
20
366.88477536765794
10
-361.98667174020056
20
384.38477536765794
10
-352.98667174020068
20
384.38477536765794
10
-352.98667174020073
20
404.38477536765794
10
-361.98667174020073
20
404.38477536765794
10
-361.98667174020079
20
421.88477536765788
10
-352.98667174020079
20
421.88477536765794
10
-352.9866717402009
20
432.88477536765805
10
-422.98667174020125
20
502.8847753676576
10
-492.9866717402009
20
432.88477536765731
10
-492.98667174020079
20
421.88477536765726
10
-483.98667174020085
20
421.88477536765731
10
-483.98667174020079
20
404.38477536765731
10
-492.98667174020073
20
404.38477536765726
10
-492.98667174020068
20
384.3847753676572
10
-483.98667174020062
20
384.38477536765726
10
-483.98667174020056
20
366.88477536765731
10
-492.98667174020056
20
366.88477536765726
10
-492.98667174020039
20
346.8847753676572
10
-483.98667174020045
20
346.88477536765726
10
-483.98667174020034
20
329.38477536765726
10
-492.98667174020039
20
329.38477536765726
10
-492.98667174020022
20
309.38477536765726
10
-483.98667174020028
20
309.38477536765726
10
-483.98667174020022
20
291.88477536765726
10
-492.98667174020017
20
291.8847753676572
10
-492.98667174019999
20
271.88477536765686
10
-477.98667174020005
20
271.88477536765691
10
-477.98667174020011
20
280.88477536765686
10
-461.73667174020011
20
280.88477536765697
10
-461.73667174020005
20
271.88477536765697
10
-446.73667174020005
20
271.88477536765703
10
-446.73667174020011
20
280.88477536765708
10
-430.48667174020011
20
280.88477536765714
10
-430.48667174020005
20
271.88477536765714
10
-415.48667174020005
20
271.8847753676572
10
-415.48667174020011
20
280.88477536765726
10
-399.23667174020011
20
280.88477536765731
10
-399.23667174020005
20
271.88477536765726
10
-384.23667174020005
20
271.88477536765737
10
-384.23667174020011
20
280.88477536765743
10
-367.98667174020011
20
280.88477536765743
10
-367.98667174020005
20
271.88477536765748
10
-352.98667174020005
20
271.88477536765754
10
-352.98667174020017
20
291.88477536765794
10
-361.98667174020017
20
291.88477536765794
0
CIRCLE
5
290
100
AcDbEntity
8
0
100
AcDbCircle
10
-387.19765857244704
20
386.69646129932806
30
3.5527136788005009e-14
40
1.25
210
0
220
-0
230
1
0
CIRCLE
5
291
100
AcDbEntity
8
0
100
AcDbCircle
10
-472.98667188921178
20
301.88477343050641
30
1.7763568394002505e-14
40
7.5
210
-1.3694509915830833e-30
220
1.1102230246251565e-16
230
1
0
LWPOLYLINE
5
292
100
AcDbEntity
8
0
100
AcDbPolyline
90
5
70
1
43
0.0
10
-620.99811440552003
20
270.76483307524592
10
-498.99811440552003
20
270.7648330752466
10
-498.99811440552008
20
383.26483307524552
10
-559.99811440552003
20
444.26483307524552
10
-620.99811440552003
20
383.26483307524552
0
ENDSEC
0
SECTION
2
OBJECTS
0
DICTIONARY
5
C
100
AcDbDictionary
3
ACAD_GROUP
350
D
3
ACAD_MLINESTYLE
350
17
0
DICTIONARY
5
D
100
AcDbDictionary
0
DICTIONARY
5
1A
330
C
100
AcDbDictionary
0
DICTIONARY
5
17
100
AcDbDictionary
0
ENDSEC
0
EOF
