0
SECTION
2
HEADER
9
$INSUNITS
70
4
9
$ACADVER
1
AC1014
9
$HANDSEED
5
FFFF
0
ENDSEC
0
SECTION
2
TABLES
0
TABLE
2
VPORT
5
8
100
AcDbSymbolTable
0
ENDTAB
0
TABLE
2
LTYPE
5
5
100
AcDbSymbolTable
0
LTYPE
5
14
100
AcDbSymbolTableRecord
100
AcDbLinetypeTableRecord
2
BYBLOCK
70
0
0
LTYPE
5
15
100
AcDbSymbolTableRecord
100
AcDbLinetypeTableRecord
2
BYLAYER
70
0
0
LTYPE
5
16
100
AcDbSymbolTableRecord
100
AcDbLinetypeTableRecord
2
DASHED
70
0
3
Dashed __ __ __ __ __ __ __ __ __ __ __ __ __ _
72
65
73
2
40
0.75
49
0.5
74
0
49
-0.25
74
0
0
ENDTAB
0
TABLE
2
LAYER
5
2
100
AcDbSymbolTable
70
2
0
LAYER
5
50
100
AcDbSymbolTableRecord
100
AcDbLayerTableRecord
2
0
70
0
62
7
6
CONTINUOUS
0
ENDTAB
0
TABLE
2
STYLE
5
3
100
AcDbSymbolTable
70
1
0
STYLE
5
11
100
AcDbSymbolTableRecord
100
AcDbTextStyleTableRecord
2
STANDARD
70
0
0
ENDTAB
0
TABLE
2
VIEW
5
6
100
AcDbSymbolTable
70
0
0
ENDTAB
0
TABLE
2
UCS
5
7
100
AcDbSymbolTable
70
0
0
ENDTAB
0
TABLE
2
APPID
5
9
100
AcDbSymbolTable
70
2
0
APPID
5
12
100
AcDbSymbolTableRecord
100
AcDbRegAppTableRecord
2
ACAD
70
0
0
ENDTAB
0
TABLE
2
DIMSTYLE
5
A
100
AcDbSymbolTable
70
1
0
ENDTAB
0
TABLE
2
BLOCK_RECORD
5
1
100
AcDbSymbolTable
70
1
0
BLOCK_RECORD
5
1F
100
AcDbSymbolTableRecord
100
AcDbBlockTableRecord
2
*MODEL_SPACE
0
BLOCK_RECORD
5
1B
100
AcDbSymbolTableRecord
100
AcDbBlockTableRecord
2
*PAPER_SPACE
0
ENDTAB
0
ENDSEC
0
SECTION
2
BLOCKS
0
BLOCK
5
20
100
AcDbEntity
100
AcDbBlockBegin
2
*MODEL_SPACE
0
ENDBLK
5
21
100
AcDbEntity
100
AcDbBlockEnd
0
BLOCK
5
1C
100
AcDbEntity
100
AcDbBlockBegin
2
*PAPER_SPACE
0
ENDBLK
5
1D
100
AcDbEntity
100
AcDbBlockEnd
0
ENDSEC
0
SECTION
2
ENTITIES
0
LWPOLYLINE
5
100
100
AcDbEntity
8
0
100
AcDbPolyline
90
5
70
1
43
0.0
10
409.74014334563009
20
-187.15546250420795
10
531.74014334563014
20
-187.15546250420834
10
531.74014334563014
20
-74.655462504208913
10
470.74014334563009
20
-13.655462504209419
10
409.74014334563014
20
-74.655462504209439
0
LWPOLYLINE
5
101
100
AcDbEntity
8
0
100
AcDbPolyline
90
53
70
1
43
0.0
10
562.63786434757935
20
-186.67253500937264
10
577.63786434757935
20
-186.67253500937255
10
577.63786434757935
20
-180.67253500937258
10
593.88786434757947
20
-180.6725350093725
10
593.88786434757947
20
-186.67253500937247
10
608.88786434757935
20
-186.67253500937244
10
608.88786434757935
20
-180.67253500937244
10
625.13786434757947
20
-180.67253500937233
10
625.13786434757947
20
-186.67253500937233
10
640.13786434757947
20
-186.67253500937224
10
640.13786434757935
20
-180.67253500937227
10
656.38786434757935
20
-180.67253500937221
10
656.38786434757935
20
-186.67246543784739
10
668.38786434757935
20
-186.67246543784731
10
668.38786434757935
20
-169.67253500937207
10
662.38786434757935
20
-169.6725350093721
10
662.38786434757935
20
-152.1725350093721
10
668.38786434757935
20
-152.17253500937207
10
668.38786434757935
20
-132.17253500937204
10
662.38786434757969
20
-132.1725350093721
10
662.38786434757958
20
-114.67253500937206
10
668.38786434757947
20
-114.67253500937201
10
668.38786434757958
20
-94.672535009372012
10
662.38786434757969
20
-94.672535009372041
10
662.38786434757969
20
-77.172535009372012
10
668.38786434757958
20
-77.172535009371984
10
668.38786434757958
20
-57.172535009371941
10
662.38786434757981
20
-57.17253500937197
10
662.38786434757969
20
-39.672535009371956
10
668.38786434757958
20
-39.672535009371927
10
668.38786434757981
20
-25.672535009371931
10
601.38786434757992
20
41.327464990627867
10
534.38786434757969
20
-25.672535009372545
10
534.38786434757969
20
-39.672535009372567
10
540.38786434757969
20
-39.672535009372538
10
540.38786434757969
20
-57.172535009372552
10
534.38786434757969
20
-57.172535009372581
10
534.38786434757969
20
-77.172535009372609
10
540.38786434757958
20
-77.172535009372595
10
540.38786434757958
20
-94.672535009372609
10
534.38786434757958
20
-94.672535009372638
10
534.38786434757947
20
-114.67253500937264
10
540.38786434757958
20
-114.67253500937261
10
540.38786434757947
20
-132.17253500937264
10
534.38786434757947
20
-132.17253500937269
10
534.38786434757947
20
-152.17253500937272
10
540.38786434757958
20
-152.17253500937267
10
540.38786434757935
20
-169.67253500937272
10
534.38786434757947
20
-169.67253500937275
10
534.38786434757935
20
-186.67253500937278
10
546.38786434757947
20
-186.67253500937272
10
546.38786434757935
20
-180.67253500937272
10
562.63786434757947
20
-180.67253500937261
0
LWPOLYLINE
5
102
100
AcDbEntity
8
0
100
AcDbPolyline
90
4
70
1
43
0.0
10
556.38786598670731
20
-132.17253500988897
10
588.88786598670731
20
-132.1725350098892
10
588.8878659867072
20
-138.1725350098892
10
556.38786598670731
20
-138.17253500988895
0
LWPOLYLINE
5
103
100
AcDbEntity
8
0
100
AcDbPolyline
90
4
70
1
43
0.0
10
613.8878659867072
20
-132.1725350098892
10
646.3878659867072
20
-132.17253500988909
10
646.38786598670731
20
-138.17253500988906
10
613.88786598670731
20
-138.17253500988915
0
CIRCLE
5
104
100
AcDbEntity
8
0
100
AcDbCircle
10
551.38786419856785
20
-159.67253694652368
30
2.0605739337042905e-12
40
7.5000000000000089
210
-2.7766665044311738e-15
220
3.3484093343836658e-15
230
1
0
CIRCLE
5
105
100
AcDbEntity
8
0
100
AcDbCircle
10
637.17687751533322
20
-74.860849077701829
30
2.007283228522283e-12
40
1.2500000000000018
210
-2.7766665044311741e-15
220
3.3484093343836654e-15
230
1
0
CIRCLE
5
106
100
AcDbEntity
8
0
100
AcDbCircle
10
637.17687751533367
20
-7.0570741379965272
30
1.794120407794253e-12
40
1.2500000000000018
210
-2.7766665044311741e-15
220
3.3484093343836654e-15
230
1
0
CIRCLE
5
107
100
AcDbEntity
8
0
100
AcDbCircle
10
567.17687751533299
20
-74.822703432572254
30
1.8118839761882555e-12
40
1.2500000000000018
210
-2.7766665044311741e-15
220
3.3484093343836654e-15
230
1
0
CIRCLE
5
108
100
AcDbEntity
8
0
100
AcDbCircle
10
567.17687751533333
20
-7.0570741379967661
30
1.5987211554602254e-12
40
1.2500000000000018
210
-2.7766665044311741e-15
220
3.3484093343836654e-15
230
1
0
CIRCLE
5
109
100
AcDbEntity
8
0
100
AcDbCircle
10
567.1768775153331
20
-127.05707413799713
30
2.007283228522283e-12
40
1.2500000000000018
210
-2.7766665044311741e-15
220
3.3484093343836654e-15
230
1
0
LWPOLYLINE
5
110
100
AcDbEntity
8
0
100
AcDbPolyline
90
4
70
1
43
0.0
10
630.98786283660206
20
-11.008703462099065
10
630.98786283660195
20
-69.972534153300444
10
572.02704679460453
20
-69.972534153300728
10
572.02704679460476
20
-11.008703462099341
0
CIRCLE
5
111
100
AcDbEntity
8
0
100
AcDbCircle
10
637.17687751533333
20
-127.05707413799699
30
2.1849189124623081e-12
40
1.2500000000000018
210
-2.7766665044311741e-15
220
3.3484093343836654e-15
230
1
0
LWPOLYLINE
5
112
100
AcDbEntity
8
0
100
AcDbPolyline
90
4
70
1
43
0.0
10
626.30902280225155
20
-60.536728045989541
10
626.30902280225155
20
-40.536728045989427
10
576.30902280225143
20
-40.536728045989683
10
576.30902280225143
20
-60.536728045989818
0
LWPOLYLINE
5
113
100
AcDbEntity
8
0
100
AcDbPolyline
90
4
70
1
43
0.0
10
577.39722222261514
20
-32.798024535930153
10
627.13434072377413
20
-32.798024535929926
10
627.13434072377413
20
-12.798024535930049
10
577.39722222261514
20
-12.798024535930271
0
LWPOLYLINE
5
114
100
AcDbEntity
8
0
100
AcDbPolyline
90
53
70
1
43
0.0
10
575.75118580648189
20
21.332687649980898
10
575.75118580647984
20
35.332687649980834
10
569.75118580647984
20
35.332687649979917
10
569.75118580647722
20
52.832687649979839
10
575.75118580647722
20
52.832687649980734
10
575.75118580647415
20
72.832687649980642
10
569.75118580647427
20
72.832687649979718
10
569.75118580647177
20
90.332687649979647
10
575.75118580647177
20
90.332687649980556
10
575.7511858064687
20
110.33268764998043
10
569.7511858064687
20
110.33268764997955
10
569.7511858064662
20
127.83268764997945
10
575.7511858064662
20
127.83268764998036
10
575.75118580646313
20
147.83268764998024
10
569.75118580646313
20
147.83268764997936
10
569.75118580646063
20
165.33268764997928
10
575.75118580646063
20
165.33268764998019
10
575.75118580645812
20
182.33268764998013
10
563.75118580645801
20
182.33268764997828
10
563.75118580645892
20
176.33268764997831
10
547.50118580645892
20
176.33268764997581
10
547.50118580645812
20
182.33268764997581
10
532.50118580645801
20
182.33268764997354
10
532.50118580645892
20
176.33268764997356
10
516.25118580645892
20
176.33268764997109
10
516.25118580645812
20
182.33268764997106
10
501.25118580645812
20
182.33268764996879
10
501.25118580645898
20
176.33268764996885
10
485.00118580645898
20
176.33268764996637
10
485.00118580645812
20
182.33268764996632
10
470.00118580645812
20
182.33268764996404
10
470.00118580645898
20
176.3326876499641
10
453.75118580645898
20
176.3326876499616
10
453.75118580645812
20
182.33268764996154
10
441.75118580645812
20
182.33268764995972
10
441.75118580646063
20
165.33268764995978
10
447.75118580646057
20
165.33268764996075
10
447.75118580646324
20
147.83268764996083
10
441.75118580646324
20
147.83268764995992
10
441.75118580646625
20
127.83268764996001
10
447.75118580646614
20
127.83268764996089
10
447.75118580646875
20
110.332687649961
10
441.75118580646887
20
110.33268764996009
10
441.75118580647177
20
90.332687649960178
10
447.75118580647177
20
90.332687649961073
10
447.75118580647427
20
72.832687649961173
10
441.75118580647444
20
72.832687649960263
10
441.75118580647734
20
52.83268764996037
10
447.75118580647722
20
52.832687649961287
10
447.75118580647984
20
35.332687649961372
10
441.7511858064799
20
35.332687649960462
10
441.75118580648194
20
21.332687649960533
10
508.75118580649189
20
-45.667312350028965
0
LWPOLYLINE
5
115
100
AcDbEntity
8
0
100
AcDbPolyline
90
28
70
1
43
0.0
10
599.71244328363582
20
42.914392284108366
10
626.2123732232651
20
42.914392284107777
10
626.21237322326556
20
59.914392284108047
10
632.21237322326556
20
59.91439228410794
10
632.21237322326647
20
79.91439228410789
10
626.2123732232659
20
79.914392284108004
10
626.21237322326681
20
99.914392284107862
10
632.2123732232667
20
99.914392284107763
10
632.21237322326715
20
119.91439228410775
10
626.21237322326704
20
119.91439228410785
10
626.21237322326749
20
139.91439228410786
10
632.21237322326749
20
139.91439228410775
10
632.21237322326783
20
159.91439228410772
10
626.21237322326783
20
159.91439228410781
10
626.21237322326817
20
176.91439228410758
10
599.71244328363787
20
176.91439228410817
10
599.71244328363787
20
170.9143922841082
10
583.71237322326681
20
170.91439228410854
10
583.71237322326658
20
150.91439228410854
10
577.71237322326658
20
150.91439228410869
10
577.71237322326601
20
119.91439228410874
10
583.71237322326601
20
119.9143922841086
10
583.71237322326579
20
99.914392284108615
10
577.71237322326579
20
99.914392284108757
10
577.71237322326533
20
68.9143922841088
10
583.71237322326533
20
68.914392284108658
10
583.71237322326488
20
48.914392284108672
10
599.71244328363593
20
48.914392284108331
0
LWPOLYLINE
5
116
100
AcDbEntity
8
0
100
AcDbPolyline
90
37
70
1
43
0.0
10
768.8924949898086
20
175.82728499261978
10
634.89249498980814
20
175.82728499263115
10
634.89249498980666
20
158.82728499263121
10
640.89249498980666
20
158.82728499263069
10
640.89249498980519
20
141.32728499263072
10
634.89249498980507
20
141.32728499263126
10
634.89249498980325
20
121.32728499263131
10
640.89249498980325
20
121.32728499263081
10
640.89249498980166
20
103.82728499263087
10
634.89249498980166
20
103.82728499263138
10
634.89249498979996
20
83.827284992631434
10
640.89249498979996
20
83.827284992630922
10
640.89249498979825
20
66.327284992630965
10
634.89249498979825
20
66.327284992631476
10
634.89249498979655
20
46.327284992631533
10
640.89249498979655
20
46.327284992631022
10
640.89249498979495
20
28.827284992631075
10
634.89249498979495
20
28.82728499263159
10
634.89249498979359
20
14.827284992631633
10
701.89249498978779
20
-52.172715007373853
10
768.89249498979416
20
14.827284992620262
10
768.89249498979541
20
28.827284992620214
10
762.8924949897953
20
28.827284992620722
10
762.89249498979689
20
46.327284992620662
10
768.89249498979689
20
46.327284992620164
10
768.89249498979882
20
66.327284992620093
10
762.89249498979859
20
66.327284992620605
10
762.8924949898003
20
83.827284992620562
10
768.8924949898003
20
83.827284992620037
10
768.89249498980212
20
103.82728499261999
10
762.892494989802
20
103.82728499262051
10
762.89249498980371
20
121.32728499262045
10
768.89249498980371
20
121.32728499261994
10
768.89249498980553
20
141.32728499261989
10
762.89249498980541
20
141.32728499262038
10
762.89249498980689
20
158.82728499262032
10
768.89249498980712
20
158.82728499261981
0
LINE
5
117
100
AcDbEntity
8
0
100
AcDbLine
10
669.44249501350271
20
-128.94753994798032
30
2.2915003228263231e-12
11
669.44249501350271
21
-143.94753994798032
31
2.3417264628420783e-12
0
LINE
5
118
100
AcDbEntity
8
0
100
AcDbLine
10
669.44249501350271
20
-143.94753994798032
30
2.3417264628420783e-12
11
675.44249501350248
21
-143.94753994798026
31
2.3614510270349176e-12
0
LINE
5
119
100
AcDbEntity
8
0
100
AcDbLine
10
675.44249501350248
20
-143.94753994798026
30
2.3614510270349176e-12
11
675.44249501350248
21
-158.44753994798029
31
2.4111065317508959e-12
0
LINE
5
120
100
AcDbEntity
8
0
100
AcDbLine
10
675.44249501350248
20
-158.44753994798029
30
2.4111065317508959e-12
11
669.44249501350259
21
-158.44753994798032
31
2.3814217341637511e-12
0
LINE
5
121
100
AcDbEntity
8
0
100
AcDbLine
10
669.44249501350259
20
-158.44753994798032
30
2.3814217341637511e-12
11
669.44249501350259
21
-173.44753994798029
31
2.4305443048120908e-12
0
LINE
5
122
100
AcDbEntity
8
0
100
AcDbLine
10
669.44249501350259
20
-173.44753994798029
30
2.4305443048120908e-12
11
675.44249501350248
21
-173.44753994798026
31
2.4502688690049301e-12
0
LINE
5
123
100
AcDbEntity
8
0
100
AcDbLine
10
675.44249501350248
20
-173.44753994798026
30
2.4502688690049301e-12
11
675.44249501350248
21
-185.44752811933137
31
2.4915533107777911e-12
0
LINE
5
124
100
AcDbEntity
8
0
100
AcDbLine
10
675.44249501350248
20
-185.44752811933137
30
2.4915533107777911e-12
11
695.44249501350248
21
-185.44752811933122
31
2.5424329052489737e-12
0
LINE
5
125
100
AcDbEntity
8
0
100
AcDbLine
10
695.44249501350248
20
-185.44752811933122
30
2.5424329052489737e-12
11
695.44249501350248
21
-179.44752811933117
31
2.5200998243360559e-12
0
LINE
5
126
100
AcDbEntity
8
0
100
AcDbLine
10
695.44249501350248
20
-179.44752811933117
30
2.5200998243360559e-12
11
726.44249501350248
21
-179.44752811933111
31
2.6262669419797244e-12
0
LINE
5
127
100
AcDbEntity
8
0
100
AcDbLine
10
726.44249501350248
20
-179.44752811933111
30
2.6262669419797244e-12
11
726.44249501350248
21
-185.44752811933108
31
2.6490985783186725e-12
0
LINE
5
128
100
AcDbEntity
8
0
100
AcDbLine
10
726.44249501350248
20
-185.44752811933108
30
2.6490985783186725e-12
11
746.44249501350248
21
-185.44752811933103
31
2.6845414524009937e-12
0
LINE
5
129
100
AcDbEntity
8
0
100
AcDbLine
10
746.44249501350248
20
-185.44752811933103
30
2.6845414524009937e-12
11
746.44249501350248
21
-179.447528119331
31
2.6622083714880764e-12
0
LINE
5
130
100
AcDbEntity
8
0
100
AcDbLine
10
746.44249501350248
20
-179.447528119331
30
2.6622083714880764e-12
11
777.44249501350237
21
-179.44752811933083
31
2.768375489131744e-12
0
LINE
5
131
100
AcDbEntity
8
0
100
AcDbLine
10
777.44249501350237
20
-179.44752811933083
30
2.768375489131744e-12
11
777.44249501350259
21
-185.4475281193308
31
2.7912071254706926e-12
0
LINE
5
132
100
AcDbEntity
8
0
100
AcDbLine
10
777.44249501350259
20
-185.4475281193308
30
2.7912071254706926e-12
11
797.44249501350259
21
-185.44752811933068
31
2.8266499995530138e-12
0
LINE
5
133
100
AcDbEntity
8
0
100
AcDbLine
10
797.44249501350259
20
-185.44752811933068
30
2.8266499995530138e-12
11
797.44249501350259
21
-173.44753994797964
31
2.7842265022409528e-12
0
LINE
5
134
100
AcDbEntity
8
0
100
AcDbLine
10
797.44249501350259
20
-173.44753994797964
30
2.7842265022409528e-12
11
803.44249501350248
21
-173.44753994797958
31
2.8055402368849802e-12
0
LINE
5
135
100
AcDbEntity
8
0
100
AcDbLine
10
803.44249501350248
20
-173.44753994797958
30
2.8055402368849802e-12
11
803.44249501350248
21
-158.44753994797961
31
2.7564176662366405e-12
0
LINE
5
136
100
AcDbEntity
8
0
100
AcDbLine
10
803.44249501350248
20
-158.44753994797961
30
2.7564176662366405e-12
11
797.44249501350259
21
-158.44753994797966
31
2.7366931020438012e-12
0
LINE
5
137
100
AcDbEntity
8
0
100
AcDbLine
10
797.44249501350259
20
-158.44753994797966
30
2.7366931020438012e-12
11
797.44249501350259
21
-143.94753994797964
31
2.687037597327823e-12
0
LINE
5
138
100
AcDbEntity
8
0
100
AcDbLine
10
797.44249501350259
20
-143.94753994797964
30
2.687037597327823e-12
11
803.44249501350248
21
-143.94753994797961
31
2.7167223949149677e-12
0
LINE
5
139
100
AcDbEntity
8
0
100
AcDbLine
10
803.44249501350248
20
-143.94753994797961
30
2.7167223949149677e-12
11
803.44249501350248
21
-128.94753994797964
31
2.667599824266628e-12
0
LINE
5
140
100
AcDbEntity
8
0
100
AcDbLine
10
803.44249501350248
20
-128.94753994797964
30
2.667599824266628e-12
11
797.44249501350271
21
-128.94753994797966
31
2.6478752600737887e-12
0
LINE
5
141
100
AcDbEntity
8
0
100
AcDbLine
10
797.44249501350271
20
-128.94753994797966
30
2.6478752600737887e-12
11
797.44249501350271
21
-114.44753994797966
31
2.5982197553578105e-12
0
LINE
5
142
100
AcDbEntity
8
0
100
AcDbLine
10
797.44249501350271
20
-114.44753994797966
30
2.5982197553578105e-12
11
803.44249501350259
21
-114.44753994797964
31
2.6101409845509527e-12
0
LINE
5
143
100
AcDbEntity
8
0
100
AcDbLine
10
803.44249501350259
20
-114.44753994797964
30
2.6101409845509527e-12
11
803.44249501350259
21
-99.447528119330784
31
2.5610183742954548e-12
0
LINE
5
144
100
AcDbEntity
8
0
100
AcDbLine
10
803.44249501350259
20
-99.447528119330784
30
2.5610183742954548e-12
11
791.44249501350259
21
-99.44752811933084
31
2.5423974190771892e-12
0
LINE
5
145
100
AcDbEntity
8
0
100
AcDbLine
10
791.44249501350259
20
-99.44752811933084
30
2.5423974190771892e-12
11
791.44249501350271
21
-93.44752811933084
31
2.5200998243360563e-12
0
LINE
5
146
100
AcDbEntity
8
0
100
AcDbLine
10
791.44249501350271
20
-93.44752811933084
30
2.5200998243360563e-12
11
797.44249501350271
21
-93.447528119330798
31
2.5213231425809401e-12
0
LINE
5
147
100
AcDbEntity
8
0
100
AcDbLine
10
797.44249501350271
20
-93.447528119330798
30
2.5213231425809401e-12
11
797.44249501350271
21
-60.447539947979713
31
2.4119292435208532e-12
0
LINE
5
148
100
AcDbEntity
8
0
100
AcDbLine
10
797.44249501350271
20
-60.447539947979713
30
2.4119292435208532e-12
11
797.44249501350271
21
-57.447539947979713
31
2.4058000735811899e-12
0
LINE
5
149
100
AcDbEntity
8
0
100
AcDbLine
10
797.44249501350271
20
-57.447528119330819
30
2.3980817331903381e-12
11
791.44249501350271
21
-57.447528119330855
31
2.3814217341637511e-12
0
LINE
5
150
100
AcDbEntity
8
0
100
AcDbLine
10
791.44249501350271
20
-57.447528119330855
30
2.3814217341637511e-12
11
791.44249501350271
21
-51.447528119330848
31
2.3602277087900338e-12
0
LINE
5
151
100
AcDbEntity
8
0
100
AcDbLine
10
791.44249501350271
20
-51.447528119330848
30
2.3602277087900338e-12
11
775.19249501350271
21
-51.447528119330947
31
2.3351973340993293e-12
0
LINE
5
152
100
AcDbEntity
8
0
100
AcDbLine
10
775.19249501350271
20
-51.447528119330947
30
2.3351973340993293e-12
11
775.19249501350271
21
-57.447528119330933
31
2.3471179156206299e-12
0
LINE
5
153
100
AcDbEntity
8
0
100
AcDbLine
10
775.19249501350271
20
-57.447528119330933
30
2.3471179156206299e-12
11
760.19249501350271
21
-57.447528119331011
31
2.3031410304418629e-12
0
LINE
5
154
100
AcDbEntity
8
0
100
AcDbLine
10
760.19249501350271
20
-57.447528119331011
30
2.3031410304418629e-12
11
760.19249501350271
21
-51.447528119331018
31
2.2714098668200209e-12
0
LINE
5
155
100
AcDbEntity
8
0
100
AcDbLine
10
760.19249501350271
20
-51.447528119331018
30
2.2714098668200209e-12
11
743.94249501350271
21
-51.447528119331103
31
2.2463794921293168e-12
0
LINE
5
156
100
AcDbEntity
8
0
100
AcDbLine
10
743.94249501350271
20
-51.447528119331103
30
2.2463794921293168e-12
11
743.94249501350271
21
-57.447528119331096
31
2.2583000736506178e-12
0
LINE
5
157
100
AcDbEntity
8
0
100
AcDbLine
10
743.94249501350271
20
-57.447528119331096
30
2.2583000736506178e-12
11
728.94249501350271
21
-57.447528119331174
31
2.2143231884718508e-12
0
LINE
5
158
100
AcDbEntity
8
0
100
AcDbLine
10
728.94249501350271
20
-57.447528119331174
30
2.2143231884718508e-12
11
728.94249501350271
21
-51.447528119331174
31
2.1825920248500083e-12
0
LINE
5
159
100
AcDbEntity
8
0
100
AcDbLine
10
728.94249501350271
20
-51.447528119331174
30
2.1825920248500083e-12
11
712.69249501350271
21
-51.447528119331267
31
2.1575616501593043e-12
0
LINE
5
160
100
AcDbEntity
8
0
100
AcDbLine
10
712.69249501350271
20
-51.447528119331267
30
2.1575616501593043e-12
11
712.69249501350271
21
-57.447528119331253
31
2.1694822316806053e-12
0
LINE
5
161
100
AcDbEntity
8
0
100
AcDbLine
10
712.69249501350271
20
-57.447528119331253
30
2.1694822316806053e-12
11
697.69249501350271
21
-57.447528119331331
31
2.1255053465018383e-12
0
LINE
5
162
100
AcDbEntity
8
0
100
AcDbLine
10
697.69249501350271
20
-57.447528119331331
30
2.1255053465018383e-12
11
697.69249501350271
21
-51.447528119331338
31
2.0937741828799958e-12
0
LINE
5
163
100
AcDbEntity
8
0
100
AcDbLine
10
697.69249501350271
20
-51.447528119331338
30
2.0937741828799958e-12
11
681.44249501350271
21
-51.447528119331423
31
2.0687438081892917e-12
0
LINE
5
164
100
AcDbEntity
8
0
100
AcDbLine
10
681.44249501350271
20
-51.447528119331423
30
2.0687438081892917e-12
11
681.44249501350271
21
-57.447528119331423
31
2.0806643897105928e-12
0
LINE
5
165
100
AcDbEntity
8
0
100
AcDbLine
10
681.44249501350271
20
-57.447528119331423
30
2.0806643897105928e-12
11
675.44249501350282
21
-57.447528119331459
31
2.0616775030717061e-12
0
LINE
5
166
100
AcDbEntity
8
0
100
AcDbLine
10
675.44249501350259
20
-57.447539947980353
30
2.0605739337042905e-12
11
675.44249501350259
21
-60.447539947980353
31
2.0706191617074413e-12
0
LINE
5
167
100
AcDbEntity
8
0
100
AcDbLine
10
675.44249501350259
20
-60.447539947980353
30
2.0706191617074413e-12
11
675.44249501350259
21
-93.447528119331409
31
2.1888349705257955e-12
0
LINE
5
168
100
AcDbEntity
8
0
100
AcDbLine
10
675.44249501350259
20
-93.447528119331409
30
2.1888349705257955e-12
11
681.44249501350259
21
-93.447528119331395
31
2.2015789114888951e-12
0
LINE
5
169
100
AcDbEntity
8
0
100
AcDbLine
10
681.44249501350259
20
-93.447528119331395
30
2.2015789114888951e-12
11
681.44249501350271
21
-99.447528119331395
31
2.2227729368626128e-12
0
LINE
5
170
100
AcDbEntity
8
0
100
AcDbLine
10
681.44249501350271
20
-99.447528119331395
30
2.2227729368626128e-12
11
669.44249501350271
21
-99.447528119331452
31
2.1871260511971391e-12
0
LINE
5
171
100
AcDbEntity
8
0
100
AcDbLine
10
669.44249501350271
20
-99.447528119331452
30
2.1871260511971391e-12
11
669.44249501350271
21
-114.44753994798033
31
2.252908660479224e-12
0
LINE
5
172
100
AcDbEntity
8
0
100
AcDbLine
10
669.44249501350271
20
-114.44753994798033
30
2.252908660479224e-12
11
675.44249501350259
21
-114.44753994798029
31
2.2548696166709026e-12
0
LINE
5
173
100
AcDbEntity
8
0
100
AcDbLine
10
675.44249501350259
20
-114.44753994798029
30
2.2548696166709026e-12
11
675.44249501350259
21
-128.94753994798032
31
2.3045251213868808e-12
0
LINE
5
174
100
AcDbEntity
8
0
100
AcDbLine
10
675.44249501350259
20
-128.94753994798032
30
2.3045251213868808e-12
11
669.44249501350271
21
-128.94753994798032
31
2.2915003228263231e-12
0
LWPOLYLINE
5
175
100
AcDbEntity
8
0
100
AcDbPolyline
90
4
70
1
43
0.0
10
712.69249501350271
20
-99.447528119331224
10
697.69249501350271
20
-99.447528119331295
10
697.69249501350271
20
-93.447528119331324
10
712.69249501350271
20
-93.447528119331253
0
LWPOLYLINE
5
176
100
AcDbEntity
8
0
100
AcDbPolyline
90
4
70
1
43
0.0
10
743.94249501350271
20
-99.447528119331068
10
728.94249501350271
20
-99.447528119331139
10
728.94249501350271
20
-93.447528119331167
10
743.94249501350271
20
-93.447528119331082
0
LWPOLYLINE
5
177
100
AcDbEntity
8
0
100
AcDbPolyline
90
4
70
1
43
0.0
10
775.19249501350271
20
-99.447528119330926
10
760.19249501350271
20
-99.447528119330997
10
760.19249501350271
20
-93.447528119330997
10
775.19249501350271
20
-93.447528119330926
0
LWPOLYLINE
5
178
100
AcDbEntity
8
0
100
AcDbPolyline
90
18
70
1
43
0.0
10
747.47022640842397
20
-7.7859029553089592
42
0.21796631675715036
10
746.08470588980845
20
-10.813194986385506
10
746.08470588980867
20
-45.982489468697494
42
0.41421356237310542
10
750.08470588980856
20
-49.982489468697409
10
761.63364126509214
20
-49.982489468697409
42
0.37176272242572661
10
765.59045511450768
20
-46.568684113055383
10
768.57895729095867
20
-26.396294422008385
42
-0.37176272242578839
10
772.53577114037421
20
-22.982489066365375
10
776.7574381837826
20
-22.98248906636536
42
-0.36154356397678666
10
780.69056620372066
20
-26.254132025636263
10
784.47884666368168
20
-46.710846509426318
42
0.3615435639767472
10
788.41197468361975
20
-49.982489468697331
10
801.08470676897741
20
-49.982489468697231
42
0.41421356237307488
10
805.08470676897741
20
-45.982489468697231
10
805.08470676897684
20
6.0175114253728346
42
0.41421356237310381
10
801.08470676897696
20
10.017511425372728
10
769.57289226131763
20
10.017511425372408
42
0.17999634664059341
10
766.95841277993338
20
9.0448034564489461
0
CIRCLE
5
179
100
AcDbEntity
8
0
100
AcDbCircle
10
775.58471022232106
20
-7.4824834523533736
30
2.1849189124623081e-12
40
0.50000000000000688
210
-2.7766665044311741e-15
220
3.3484093343836654e-15
230
1
0
CIRCLE
5
180
100
AcDbEntity
8
0
100
AcDbCircle
10
757.33471063024081
20
-43.982482636515428
30
2.2382096176443156e-12
40
0.50000000000000688
210
-2.7766665044311741e-15
220
3.3484093343836654e-15
230
1
0
CIRCLE
5
181
100
AcDbEntity
8
0
100
AcDbCircle
10
793.93299316018545
20
-43.978177168979258
30
2.3447910280083306e-12
40
0.50000000000000688
210
-2.7766665044311741e-15
220
3.3484093343836654e-15
230
1
0
LWPOLYLINE
5
182
100
AcDbEntity
8
0
100
AcDbPolyline
90
40
70
1
43
0.0
10
806.69449357709016
20
-129.61859075606125
10
806.69449357709004
20
-147.61859075606128
10
812.69449357708982
20
-147.61859075606128
10
812.69449357708959
20
-162.61859075606128
10
806.69449357708982
20
-162.61859075606134
10
806.69449357764415
20
-178.61860258471023
10
828.69449521621743
20
-178.61860258471023
10
828.69449521621755
20
-184.61859075645657
10
861.19449521621732
20
-184.61859075606134
10
861.19449521621732
20
-178.61860258471026
10
886.19449521621721
20
-178.61860258471029
10
886.19449521621732
20
-184.61859075606134
10
918.69449521621721
20
-184.61859075645663
10
918.69449521621721
20
-178.61860258471035
10
940.69449357764393
20
-178.61860258471037
10
940.69449357708947
20
-162.61859075606142
10
934.69449357708959
20
-162.61859075606142
10
934.6944935770897
20
-147.61859075606142
10
940.69449357708959
20
-147.61859075606142
10
940.69449357708982
20
-129.61859075606139
10
934.69449357708993
20
-129.61859075606139
10
934.69449357708993
20
-114.61859075606137
10
940.69449357708993
20
-114.61859075606139
10
940.69449357709004
20
-92.618590756061394
10
923.69449357708982
20
-92.618590756061366
10
923.6944935770897
20
-98.618590756061351
10
903.69449357708982
20
-98.618590756061337
10
903.69449357708982
20
-92.618590756061366
10
883.69449357709004
20
-92.618590756061337
10
883.69449357709004
20
-98.618590756061309
10
863.69449357709004
20
-98.61859075606128
10
863.69449357709004
20
-92.618590756061309
10
843.69449357709016
20
-92.61859075606128
10
843.69449357709016
20
-98.618590756061266
10
823.69449357709016
20
-98.618590756061252
10
823.69449357709016
20
-92.618590756061266
10
806.69449357709027
20
-92.618590756061252
10
806.69449357709016
20
-114.61859075606125
10
812.69449357709004
20
-114.61859075606125
10
812.69449357708993
20
-129.61859075606125
0
CIRCLE
5
183
100
AcDbEntity
8
0
100
AcDbCircle
10
873.69440976535668
20
-133.61860002129612
30
2.8776980798284058e-12
40
10.650000000000208
210
-2.7766665044311741e-15
220
3.3484093343836666e-15
230
1
0
LWPOLYLINE
5
184
100
AcDbEntity
8
0
100
AcDbPolyline
90
52
70
1
43
0.0
10
976.0157661795073
20
119.20695182330731
10
863.51576617950786
20
119.20695182370245
10
863.51576617950855
20
97.206963651956187
10
857.51576617950843
20
97.206963651956144
10
857.5157661795073
20
113.20695182330722
10
831.01583623987835
20
113.20695182330722
10
831.01583623987835
20
119.20695182330721
10
809.01583623987813
20
119.20695182330718
10
809.01583623987847
20
107.2069636519561
10
815.01583623987824
20
107.2069636519561
10
815.01583623987858
20
92.20696365195613
10
809.01583623987858
20
92.20696365195613
10
809.01583623987858
20
77.706963651956173
10
815.01583623987858
20
77.706963651956158
10
815.01583623987869
20
62.706963651956187
10
809.01583623987881
20
62.70696365195618
10
809.01583623987892
20
48.206963651956194
10
815.01583623987881
20
48.206963651956201
10
815.01583623987904
20
33.206963651956237
10
826.01576617950786
20
33.206963651956244
10
826.01576617950786
20
27.206963651956251
10
809.01583623987904
20
27.206963651956237
10
809.01583623987915
20
-8.793036348043719
10
826.01576617950809
20
-8.7930363480437119
10
826.01576617950832
20
-14.793036348043691
10
809.01583623987926
20
-14.793036348043699
10
809.01583623987972
20
-84.793036348044126
10
826.01576617950866
20
-84.793036348044112
10
826.01576617950866
20
-90.793024519395047
10
843.51576617950877
20
-90.793024519395033
10
843.51576617950877
20
-84.793036348044097
10
863.51576617950866
20
-84.793036348044083
10
863.51576617950866
20
-90.793024519395004
10
881.01576617950877
20
-90.79302451939499
10
881.01576617950866
20
-84.793036348044069
10
901.01576617950866
20
-84.793036348044069
10
901.01576617950866
20
-90.793024519394976
10
918.51576617950877
20
-90.793024519394962
10
918.51576617950866
20
-84.793036348044026
10
938.51576617950866
20
-84.793036348044026
10
938.51576617950866
20
-90.793024519394976
10
956.01576617950866
20
-90.793024519790237
10
956.01576617950866
20
-84.793036348043984
10
976.01576617950866
20
-84.793036348043984
10
976.01576617950832
20
-14.793036348043582
10
956.01576617950809
20
-14.793036348043598
10
956.01576617950832
20
-8.7930363480436142
10
976.01576617950809
20
-8.7930363480436
10
976.01576617950786
20
27.206963651956357
10
956.01576617950786
20
27.206963651956343
10
956.01576617950786
20
33.206963651956336
10
976.01576617950786
20
33.20696365195635
0
LWPOLYLINE
5
185
100
AcDbEntity
8
0
100
AcDbPolyline
90
4
70
1
43
0.0
10
863.51576617950855
20
82.206963651956187
10
863.51576617950866
20
64.206963651956215
10
857.51576617950877
20
64.206963651956201
10
857.51576617950843
20
82.206963651956158
0
LWPOLYLINE
5
186
100
AcDbEntity
8
0
100
AcDbPolyline
90
4
70
1
43
0.0
10
863.51576617950809
20
-8.7930363480436817
10
863.51576617950809
20
-14.79303634804366
10
843.51576617950832
20
-14.79303634804368
10
843.51576617950832
20
-8.7930363480436959
0
LWPOLYLINE
5
187
100
AcDbEntity
8
0
100
AcDbPolyline
90
4
70
1
43
0.0
10
881.01576617950786
20
27.20696365195629
10
881.01576617950786
20
33.206963651956286
10
901.01576617950786
20
33.206963651956293
10
901.01576617950786
20
27.206963651956304
0
LWPOLYLINE
5
188
100
AcDbEntity
8
0
100
AcDbPolyline
90
4
70
1
43
0.0
10
918.51576617950786
20
27.206963651956318
10
918.51576617950786
20
33.206963651956308
10
938.51576617950786
20
33.206963651956329
10
938.51576617950786
20
27.206963651956329
0
LWPOLYLINE
5
189
100
AcDbEntity
8
0
100
AcDbPolyline
90
6
70
1
43
0.0
10
843.51576617950786
20
33.206963651956258
10
857.51576617945659
20
33.206963651561011
10
857.51576617950889
20
49.206963651956215
10
863.51576617950866
20
49.206963651956237
10
863.51576617950786
20
27.206963651956279
10
843.51576617950798
20
27.206963651956265
0
LWPOLYLINE
5
190
100
AcDbEntity
8
0
100
AcDbPolyline
90
4
70
1
43
0.0
10
938.51576617950809
20
-8.7930363480436284
10
938.51576617950809
20
-14.793036348043609
10
918.51576617950832
20
-14.793036348043618
10
918.51576617950832
20
-8.7930363480436462
0
LWPOLYLINE
5
191
100
AcDbEntity
8
0
100
AcDbPolyline
90
4
70
1
43
0.0
10
901.01576617950809
20
-8.7930363480436551
10
901.01576617950809
20
-14.793036348043634
10
881.01576617950832
20
-14.79303634804365
10
881.01576617950832
20
-8.7930363480436675
0
LWPOLYLINE
5
192
100
AcDbEntity
8
0
100
AcDbPolyline
90
4
70
1
43
0.0
10
1065.7708220852442
20
-113.59520164894928
10
943.77082208524428
20
-113.59520164895383
10
943.77082208524644
20
-183.59520164895338
10
1065.7708220852462
20
-183.595201648949
0
LWPOLYLINE
5
193
100
AcDbEntity
8
0
100
AcDbPolyline
90
28
70
1
43
0.0
10
470.01153445963973
20
183.76782662759587
10
489.34486779297299
20
183.76782662759689
10
489.34486779297265
20
189.76782662759689
10
509.34486779297259
20
189.76782662759788
10
509.34486779297288
20
183.76782662759783
10
528.67820112630625
20
183.76782662759888
10
528.67820112630602
20
189.76782662759891
10
548.67820112630579
20
189.7678266275999
10
548.67820112630613
20
183.76782662759982
10
568.01153445963939
20
183.76782662760087
10
568.01153445963917
20
189.7678266276009
10
588.01153445963905
20
189.76782662760195
10
588.01153445963928
20
183.76782662760183
10
607.34486779297265
20
183.76782662760286
10
607.34486779297231
20
189.76782662760289
10
627.3448677929722
20
189.76782662760394
10
627.34486779297254
20
183.76782662760382
10
646.67820112630591
20
183.76782662760485
10
646.67820112630568
20
189.76782662760488
10
666.67820112630602
20
189.76782662760593
10
666.67820112629988
20
308.68813799177832
10
410.85646262108742
20
308.6881379917653
10
410.85646262109373
20
189.76782662759288
10
430.67820112630659
20
189.76782662759388
10
430.67820112630693
20
183.76782662759385
10
450.01153445963985
20
183.7678266275949
10
450.01153445963956
20
189.7678266275949
10
470.01153445963945
20
189.76782662759589
0
LWPOLYLINE
5
194
100
AcDbEntity
8
0
100
AcDbPolyline
90
28
70
1
43
0.0
10
927.08280166667748
20
305.77292382545636
10
907.08280166667703
20
305.77292382545795
10
907.08280166667669
20
299.77292382545789
10
887.7494683333432
20
299.77292382545949
10
887.74946833334354
20
305.77292382545954
10
867.74946833334354
20
305.77292382546108
10
867.74946833334309
20
299.77292382546102
10
848.41613500000972
20
299.77292382546256
10
848.41613500001029
20
305.77292382546267
10
828.41613500001029
20
305.77292382546426
10
828.41613500000972
20
299.7729238254642
10
809.08280166667635
20
299.77292382546568
10
809.0828016666768
20
305.7729238254658
10
789.08280166667691
20
305.77292382546739
10
789.08280166667646
20
299.77292382546727
10
769.7494683333432
20
299.77292382546887
10
769.74946833334343
20
305.77292382546892
10
749.74946833334343
20
305.77292382547051
10
749.74946833334297
20
299.77292382547046
10
730.4161350000096
20
299.77292382547199
10
730.41613500001006
20
305.77292382547205
10
710.41613500001006
20
305.77292382547364
10
710.41613500000972
20
299.77292382547364
10
691.08280166667669
20
299.77292382547512
10
691.08280166667714
20
305.77292382547517
10
671.26106316146411
20
305.77292382547677
10
671.26106316145479
20
180.85261246130418
10
927.08280166666805
20
180.8526124612838
0
LWPOLYLINE
5
195
100
AcDbEntity
8
0
100
AcDbPolyline
90
4
70
1
43
0.0
10
775.19435302355748
20
123.3499727137293
10
845.19435302355464
20
123.34997271373106
10
845.1943530235535
20
173.34997271373041
10
775.19435302355635
20
173.3499727137287
0
LWPOLYLINE
5
196
100
AcDbEntity
8
0
100
AcDbPolyline
90
52
70
1
43
0.0
10
933.59043797068216
20
205.94313938551824
10
933.59043797068216
20
188.44313938551818
10
939.59042614203315
20
188.44313938551818
10
939.59042614203304
20
168.44313938551807
10
933.59043797068193
20
168.44313938551807
10
933.59043797068216
20
150.94313938551798
10
939.59042614203315
20
150.94313938551801
10
939.59042614203304
20
133.94320944588895
10
1009.5904261420333
20
133.94320944588935
10
1009.5904261420334
20
150.94313938551841
10
1015.5904261420336
20
150.94313938551846
10
1015.5904261420335
20
133.94320944588938
10
1051.5904261420333
20
133.94320944588958
10
1051.5904261420333
20
150.94313938551866
10
1057.5904261420333
20
150.94313938551869
10
1057.5904261420333
20
139.94320944588961
10
1072.5904261420333
20
139.94320944588969
10
1072.5904261420333
20
133.94320944588969
10
1087.0904261420333
20
133.94320944588981
10
1087.0904261420335
20
139.94320944588981
10
1102.0904261420335
20
139.94320944588989
10
1102.0904261420335
20
133.94320944588986
10
1116.5904261420335
20
133.94320944588998
10
1116.5904261420333
20
139.94320944588998
10
1131.5904261420333
20
139.94320944589006
10
1131.5904261420333
20
133.94320944589003
10
1143.5904143133844
20
133.94320944589012
10
1143.5904143133844
20
155.94320944589023
10
1137.5904143133846
20
155.9432094458902
10
1137.5904143133846
20
182.44313938552034
10
1121.5904261420335
20
182.44313938552017
10
1121.5904261420335
20
188.4431393855202
10
1143.59041431378
20
188.4431393855206
10
1143.5904143133846
20
300.94313938551988
10
1057.5904261420333
20
300.94313938551937
10
1057.5904261420333
20
280.94313938551932
10
1051.5904261420335
20
280.94313938551926
10
1051.5904261420335
20
300.94313938551932
10
1015.5904261420335
20
300.94313938551915
10
1015.5904261420335
20
280.94313938551909
10
1009.5904261420334
20
280.94313938551903
10
1009.5904261420335
20
300.94313938551909
10
939.59042614203315
20
300.94313938551869
10
939.59042614203304
20
280.94313938551863
10
933.59043797028664
20
280.94313938551858
10
933.59043797068216
20
263.44313938551852
10
939.59042614203315
20
263.44313938551852
10
939.59042614203304
20
243.44313938551846
10
933.59043797068193
20
243.44313938551841
10
933.59043797068216
20
225.94313938551835
10
939.59042614203315
20
225.94313938551835
10
939.59042614203304
20
205.94313938551829
0
LWPOLYLINE
5
197
100
AcDbEntity
8
0
100
AcDbPolyline
90
6
70
1
43
0.0
10
1057.5904261416383
20
182.44313938546836
10
1057.5904261420335
20
168.44313938551878
10
1051.5904261420335
20
168.44313938551875
10
1051.5904261420335
20
188.44313938551886
10
1073.5904261420335
20
188.44313938551994
10
1073.5904261420337
20
182.44313938551994
0
LWPOLYLINE
5
198
100
AcDbEntity
8
0
100
AcDbPolyline
90
4
70
1
43
0.0
10
1088.5904261420337
20
188.44313938552006
10
1106.5904261420335
20
188.44313938552017
10
1106.5904261420335
20
182.44313938552011
10
1088.5904261420335
20
182.44313938552
0
LWPOLYLINE
5
199
100
AcDbEntity
8
0
100
AcDbPolyline
90
4
70
1
43
0.0
10
1015.5904261420335
20
205.94313938551875
10
1009.5904261420334
20
205.94313938551869
10
1009.5904261420335
20
225.94313938551878
10
1015.5904261420336
20
225.9431393855188
0
LWPOLYLINE
5
200
100
AcDbEntity
8
0
100
AcDbPolyline
90
4
70
1
43
0.0
10
1015.5904261420335
20
168.44313938551858
10
1009.5904261420334
20
168.44313938551852
10
1009.5904261420335
20
188.44313938551861
10
1015.5904261420336
20
188.44313938551863
0
LWPOLYLINE
5
201
100
AcDbEntity
8
0
100
AcDbPolyline
90
4
70
1
43
0.0
10
1051.5904261420335
20
263.44313938551915
10
1057.5904261420333
20
263.4431393855192
10
1057.5904261420333
20
243.44313938551915
10
1051.5904261420335
20
243.44313938551909
0
LWPOLYLINE
5
202
100
AcDbEntity
8
0
100
AcDbPolyline
90
4
70
1
43
0.0
10
1051.5904261420335
20
225.94313938551898
10
1057.5904261420333
20
225.94313938551903
10
1057.5904261420333
20
205.94313938551895
10
1051.5904261420335
20
205.94313938551892
0
LWPOLYLINE
5
203
100
AcDbEntity
8
0
100
AcDbPolyline
90
4
70
1
43
0.0
10
1015.5904261420335
20
243.44313938551892
10
1009.5904261420334
20
243.44313938551889
10
1009.5904261420335
20
263.44313938551898
10
1015.5904261420336
20
263.44313938551898
0
ENDSEC
0
SECTION
2
OBJECTS
0
DICTIONARY
5
C
100
AcDbDictionary
3
ACAD_GROUP
350
D
3
ACAD_MLINESTYLE
350
17
0
DICTIONARY
5
D
100
AcDbDictionary
0
DICTIONARY
5
1A
330
C
100
AcDbDictionary
0
DICTIONARY
5
17
100
AcDbDictionary
0
ENDSEC
0
EOF
